<svg width="193" height="138" viewBox="0 0 193 138" fill="none" xmlns="http://www.w3.org/2000/svg">
<path fill-rule="evenodd" clip-rule="evenodd" d="M100.279 21.2909C103.179 17.0129 110.656 11.0353 116.069 10.7366C120.015 10.5194 122.194 11.1248 125.691 12.7021C128.257 14.1001 130.269 15.196 132.305 17.4802C134.808 20.2878 138.381 25.3962 141.432 29.4516C144.004 32.8704 147.217 37.8524 149.099 41.2758C152.32 47.1328 154.33 52.4222 150.281 58.3886L149.558 59.5095C149.541 59.5307 149.492 59.5902 149.474 59.6102C149.461 59.6239 149.442 59.6435 149.428 59.6568C148.463 60.6258 147.483 61.2174 146.33 61.9264C146.078 62.0812 146.31 61.9343 146.124 62.0899C144.116 63.7663 138.17 64.0163 135.914 62.8039L135.733 62.7074C135.298 62.5185 134.591 62.1935 133.97 61.4575L102.228 23.8614L100.278 21.2909H100.279ZM24.792 47.6574C25.014 46.0822 25.8153 44.207 26.3409 42.6717C26.508 42.3559 26.5796 42.301 26.7043 41.9299C27.3764 39.9307 32.9995 31.8486 33.936 30.5371C34.0775 30.3391 34.0392 30.3699 34.1331 30.181C34.406 29.6335 34.8633 29.1271 35.2225 28.5958L36.5242 26.5779C36.6998 26.3178 36.7865 26.1481 36.9495 25.8968L43.9715 15.3982C44.2823 14.9393 44.5602 14.574 44.8828 14.0959C46.0556 12.3567 47.2482 10.6663 48.7528 9.20129C49.0038 8.95665 49.0467 8.8468 49.2632 8.60423C50.1109 7.65394 51.0807 6.76897 52.1099 6.00216C56.5375 2.70359 62.393 0 68.0481 0C74.1744 0 80.2262 1.25818 85.2458 4.94162C85.7099 5.28196 86.142 5.53617 86.5963 5.90147C87.1236 6.32586 89.1104 7.91565 89.6646 8.55972C89.8831 8.81352 89.9214 8.90505 90.177 9.15469L91.2913 10.3484C91.5128 10.5668 91.6998 10.7104 91.8409 10.9987L93.22 12.9396L93.6264 12.5153C93.6386 12.5007 93.6558 12.4795 93.6685 12.4649C93.6765 12.4558 93.7881 12.3155 93.7919 12.3114C93.8045 12.2972 93.8226 12.2769 93.8356 12.2627L93.9291 12.1712C94.0226 12.08 93.9776 12.1337 94.074 12.0393L97.3641 8.86553C97.8792 8.39247 98.3255 7.8524 98.873 7.41928C99.3042 7.0781 99.6634 6.74692 100.093 6.42239C100.307 6.26095 100.504 6.13364 100.72 5.94101C107.026 0.30789 116.214 -0.374872 124.119 1.00189C126.951 1.49493 131.838 3.63391 134.038 5.28194L135.283 6.25389C136.198 6.86967 137.171 7.86988 137.968 8.64834L140.036 10.9188C141.306 12.5714 142.384 14.4 143.643 16.0739C144.695 17.4748 145.549 19.0013 146.59 20.4118C147.619 21.8064 148.389 23.3758 149.442 24.7526C150.207 25.7528 150.515 26.4298 151.199 27.4212C151.445 27.7774 151.532 27.8668 151.738 28.2663L154.581 32.615C155.055 33.1421 155.446 33.8886 155.81 34.4295L157.59 36.9841C158.378 38.1516 159.149 39.3344 159.789 40.5926C160.126 41.2542 160.348 41.8912 160.685 42.5527L161.504 44.6809C161.919 46.0377 162.547 47.9778 162.606 49.3729C162.642 50.2129 162.791 51.152 162.791 52.0349C162.791 54.5055 162.32 56.9253 161.658 59.2665C160.948 61.7729 159.196 64.3579 157.577 66.3384C156.522 67.6282 155.298 68.7412 154.033 69.8113C151.101 72.2919 147.878 73.0786 144.286 73.9478C143.706 74.088 141.069 74.2436 140.406 74.2436C134.16 74.2436 130.545 72.571 125.769 69.1576C124.235 67.9731 123.17 66.3413 121.901 64.9029C113.702 54.9531 94.1106 28.1851 82.0976 16.3119L80.7741 15.1419C80.5024 14.9355 80.3719 14.7828 80.0712 14.5511C78.0116 12.9638 77.0127 12.4741 74.6511 11.6469C70.1478 9.56287 62.4983 10.6051 58.5074 14.7088C57.7465 15.3383 55.6018 17.521 54.8892 18.5744C54.8787 18.5902 54.8627 18.6135 54.8526 18.6289L54.4429 19.221C52.595 21.2589 38.6217 43.0071 36.402 46.9214L35.7611 48.5824C35.6866 48.951 35.6681 49.1586 35.5935 49.5177C34.59 54.3553 35.5826 56.007 37.9639 59.5494C40.5201 63.3556 46.8848 64.2506 51.0634 62.967C52.3752 62.5638 53.9443 61.4883 54.9747 60.5908C56.2873 59.4483 58.1638 56.6486 59.2073 55.2286C59.404 54.9648 59.2814 54.8537 59.6486 54.6548C60.8808 53.9866 60.5102 55.7233 60.5498 56.23L60.8968 58.55C60.9406 59.0805 61.1385 59.4358 61.2695 59.9256C61.6443 61.3277 62.0321 62.6346 62.5703 63.9631C62.6667 64.2006 62.7067 64.3625 62.8048 64.6491L63.0988 65.1846C63.1468 65.2674 63.143 65.2757 63.1948 65.3652C63.2049 65.3831 63.2184 65.4064 63.2285 65.4235L63.4374 65.7675C64.0939 67.1576 62.9927 67.6136 62.278 68.3567C61.2055 69.364 60.1708 70.2174 58.8835 70.9679C52.2573 74.631 44.2263 75.7772 37.3041 72.3156C33.1275 70.229 29.1893 67.0399 26.9932 62.8638C24.1886 56.825 23.8791 54.1863 24.7933 47.6562L24.792 47.6574Z" fill="white"/>
<path fill-rule="evenodd" clip-rule="evenodd" d="M63.1253 54.2794L63.2975 57.211C63.3443 57.645 63.5363 57.8992 63.6454 58.3577C63.7662 58.8666 63.7565 59.2169 63.9326 59.6617C64.0383 59.93 64.0484 59.8572 64.1225 60.218C64.1591 60.3969 64.1911 60.6586 64.256 60.8333C64.3419 61.063 64.4088 61.0563 64.4985 61.3351C64.5638 61.5373 64.5853 61.829 64.659 62.0162C64.7832 62.3316 64.7874 62.1256 64.9344 62.4838C65.0894 62.862 64.9664 62.7855 65.1243 63.0406L65.2873 63.2478C65.3732 63.3938 65.3488 63.3892 65.3917 63.5157L66.1994 65.0318C66.8816 66.4028 67.1536 66.3982 67.4383 66.8534C67.5343 67.0073 67.5596 67.1692 67.6901 67.3447L67.9239 67.5728C67.9377 67.5856 67.9605 67.6019 67.974 67.6152C68.0995 67.74 68.0098 67.6306 68.1028 67.7637L69.5186 69.4009C69.8968 69.7459 70.2273 70.169 70.6611 70.4736C70.9403 70.6695 70.958 70.5684 71.0022 70.9666C71.4945 70.9649 71.4843 71.0952 71.7804 71.3818C72.4558 72.0363 73.1591 72.4553 73.9718 72.9654C75.0844 73.6631 75.1345 73.4892 75.6508 73.763C75.9528 73.9232 76.1709 74.048 76.5069 74.1915L78.7552 75.0557C78.9511 75.1314 79.0239 75.1489 79.2328 75.2184C79.7735 75.3977 79.5789 75.3474 80.2131 75.4231C80.5698 75.4659 80.7947 75.6515 81.1842 75.7322C81.5459 75.8071 81.8904 75.7863 82.2361 75.8625C85.0572 76.4857 89.0838 76.177 91.6766 75.4996C92.5104 75.282 93.0372 75.0312 93.7628 74.7719L95.2716 74.2182C95.9126 73.9777 96.2625 73.6727 96.5973 73.493C97.0883 73.2288 96.7055 73.6619 98.4586 72.5547C99.9502 71.6128 102.21 69.7729 103.309 68.3828L105.895 71.589C106.269 72.023 105.948 71.9148 106.623 71.7966C109.04 71.3723 118.995 73.2429 121.249 71.4755C121.247 71.4684 103.857 51.0537 99.7177 45.4647C98.3899 43.6719 97.0875 42.7303 96.0557 42.8006C95.8435 42.8152 95.6734 42.6812 95.4093 42.7557C94.565 42.9928 93.7615 43.4014 92.9909 43.9248C91.509 44.9317 84.5131 52.1051 82.9546 54.0123C81.8091 55.4141 85.8535 58.7601 87.6672 60.4073C88.9684 61.5889 88.6518 61.6613 90.2747 59.9604C91.5469 58.6269 93.2145 56.7376 93.8348 56.6348L96.3568 59.7624L96.1901 59.9617C95.9496 60.2304 95.8603 60.3174 95.6401 60.6091L94.4804 61.9376C93.4242 62.996 91.3372 64.6112 89.8991 64.7993C89.411 64.8629 89.3723 65.0834 88.9625 65.1737C88.6147 65.2507 88.2723 65.2549 87.8933 65.3343C86.7159 65.5815 87.3038 65.5873 85.9116 65.6235C85.0572 65.6455 84.3514 65.4242 83.5121 65.2944C82.7006 65.1687 81.1396 64.5958 80.4329 64.1639L79.4724 63.6563C78.3274 62.8812 77.39 61.9638 76.4673 60.9403C75.7468 60.1406 75.1522 59.2856 74.9109 58.2238C74.4666 56.2666 74.155 56.7634 74.0767 53.813L74.5016 50.812C74.6014 50.4313 74.6254 50.2087 74.7105 49.845C74.8275 49.342 74.673 49.8017 74.9042 49.4897C75.2015 49.089 74.9581 49.5026 75.0781 49.0266C75.1632 48.6875 75.0688 48.9355 75.2705 48.6705C75.2823 48.6551 75.3026 48.6368 75.3135 48.6214C75.5426 48.2998 75.5956 48.0343 75.9793 47.5458C76.8388 46.1836 86.753 35.8764 89.5395 32.6136C89.8751 32.2205 90.4562 31.7541 90.2499 31.095C90.0587 30.4838 88.5435 29.0396 88.0609 28.4684L86.9442 27.1802C86.7205 26.8345 86.6026 26.8216 86.3773 26.5445L86.1019 26.1717C85.6518 25.6187 85.1292 25.1523 84.7194 24.5944C84.4166 24.1821 83.7425 23.7398 83.6107 23.2983C82.7099 23.3216 82.7402 23.5854 82.2812 24.1991C77.6974 30.5358 69.2975 37.5424 66.5531 41.9302L65.7454 43.4093C65.668 43.5757 65.6557 43.6211 65.5816 43.7925C65.2911 44.4653 65.1508 44.5722 64.8611 45.3536L64.3503 46.5743C64.1722 46.9484 64.2665 47.1061 64.1549 47.4647C64.0269 47.877 63.9123 47.7014 63.8226 48.2265C63.6694 49.1227 63.4744 49.126 63.4832 50.145C63.4874 50.6314 63.0584 51.7955 63.1245 54.2815L63.1253 54.2794Z" fill="white"/>
<path d="M4.13324 83.4975C4.41279 83.4975 4.70231 83.5774 5.00182 83.7371C5.3213 83.8769 5.56091 84.0666 5.72065 84.3062L12.9987 95.5079L11.5012 95.448L18.959 84.3062C19.3384 83.767 19.8276 83.4975 20.4266 83.4975C20.9058 83.4975 21.3351 83.6672 21.7145 84.0067C22.0939 84.3461 22.2836 84.7854 22.2836 85.3245V102.666C22.2836 103.185 22.1138 103.625 21.7744 103.984C21.435 104.323 20.9857 104.493 20.4266 104.493C19.8675 104.493 19.4083 104.323 19.0489 103.984C18.7094 103.625 18.5397 103.185 18.5397 102.666V88.5592L19.7078 88.8288L13.5978 98.1435C13.4181 98.3632 13.1884 98.5529 12.9089 98.7126C12.6493 98.8724 12.3798 98.9422 12.1002 98.9223C11.8406 98.9422 11.5711 98.8724 11.2915 98.7126C11.032 98.5529 10.8123 98.3632 10.6326 98.1435L4.91197 89.0983L5.6907 87.5109V102.666C5.6907 103.185 5.53096 103.625 5.21148 103.984C4.892 104.323 4.47269 104.493 3.95354 104.493C3.45435 104.493 3.04502 104.323 2.72554 103.984C2.40607 103.625 2.24633 103.185 2.24633 102.666V85.3245C2.24633 84.8253 2.42603 84.396 2.78545 84.0366C3.16483 83.6772 3.61409 83.4975 4.13324 83.4975Z" fill="white"/>
<path d="M49.009 104.793C47.3117 104.793 45.8342 104.443 44.5762 103.744C43.3382 103.026 42.3798 102.057 41.7009 100.839C41.042 99.6211 40.7125 98.2434 40.7125 96.7059C40.7125 94.9088 41.0719 93.3813 41.7908 92.1234C42.5296 90.8455 43.488 89.8671 44.6661 89.1882C45.8441 88.5093 47.0921 88.1698 48.41 88.1698C49.4283 88.1698 50.3867 88.3795 51.2853 88.7988C52.2038 89.2181 53.0124 89.7972 53.7113 90.536C54.4101 91.2548 54.9592 92.0934 55.3586 93.0519C55.7779 94.0103 55.9876 95.0286 55.9876 96.1069C55.9676 96.5861 55.7779 96.9755 55.4185 97.275C55.0591 97.5745 54.6398 97.7242 54.1606 97.7242H42.7193L41.8207 94.7291H52.8128L52.1538 95.3281V94.5195C52.1139 93.9404 51.9042 93.4213 51.5249 92.962C51.1654 92.5028 50.7062 92.1434 50.1471 91.8838C49.608 91.6042 49.0289 91.4645 48.41 91.4645C47.8109 91.4645 47.2518 91.5443 46.7327 91.7041C46.2135 91.8638 45.7643 92.1334 45.3849 92.5128C45.0055 92.8921 44.706 93.4013 44.4864 94.0403C44.2667 94.6792 44.1569 95.4879 44.1569 96.4663C44.1569 97.5445 44.3765 98.463 44.8158 99.2218C45.2751 99.9606 45.8541 100.53 46.553 100.929C47.2718 101.308 48.0306 101.498 48.8293 101.498C49.5681 101.498 50.1571 101.438 50.5964 101.318C51.0357 101.199 51.3851 101.059 51.6447 100.899C51.9242 100.719 52.1738 100.57 52.3934 100.45C52.7529 100.27 53.0923 100.18 53.4118 100.18C53.8511 100.18 54.2105 100.33 54.49 100.629C54.7895 100.929 54.9393 101.278 54.9393 101.678C54.9393 102.217 54.6597 102.706 54.1007 103.145C53.5815 103.585 52.8527 103.974 51.9142 104.313C50.9758 104.633 50.0073 104.793 49.009 104.793Z" fill="white"/>
<path d="M81.8788 88.1698C82.3979 88.1698 82.8272 88.3396 83.1666 88.679C83.5061 89.0185 83.6758 89.4577 83.6758 89.9969V102.666C83.6758 103.185 83.5061 103.625 83.1666 103.984C82.8272 104.323 82.3979 104.493 81.8788 104.493C81.3596 104.493 80.9303 104.323 80.5909 103.984C80.2514 103.625 80.0817 103.185 80.0817 102.666V101.199L80.7406 101.468C80.7406 101.728 80.6008 102.047 80.3213 102.427C80.0418 102.786 79.6624 103.145 79.1832 103.505C78.7039 103.864 78.1349 104.174 77.476 104.433C76.837 104.673 76.1381 104.793 75.3794 104.793C74.0016 104.793 72.7537 104.443 71.6355 103.744C70.5173 103.026 69.6288 102.047 68.9699 100.809C68.3309 99.5512 68.0114 98.1136 68.0114 96.4962C68.0114 94.8589 68.3309 93.4213 68.9699 92.1833C69.6288 90.9253 70.5073 89.9469 71.6056 89.2481C72.7038 88.5293 73.9218 88.1698 75.2596 88.1698C76.1182 88.1698 76.9069 88.2996 77.6257 88.5592C78.3445 88.8188 78.9635 89.1482 79.4827 89.5476C80.0218 89.9469 80.4311 90.3563 80.7107 90.7756C81.0102 91.1749 81.1599 91.5144 81.1599 91.7939L80.0817 92.1833V89.9969C80.0817 89.4777 80.2514 89.0484 80.5909 88.709C80.9303 88.3496 81.3596 88.1698 81.8788 88.1698ZM75.8286 101.498C76.7072 101.498 77.476 101.278 78.1349 100.839C78.7938 100.4 79.303 99.8008 79.6624 99.0421C80.0418 98.2833 80.2314 97.4347 80.2314 96.4962C80.2314 95.5378 80.0418 94.6792 79.6624 93.9204C79.303 93.1617 78.7938 92.5627 78.1349 92.1234C77.476 91.6841 76.7072 91.4645 75.8286 91.4645C74.9701 91.4645 74.2113 91.6841 73.5524 92.1234C72.8934 92.5627 72.3743 93.1617 71.9949 93.9204C71.6355 94.6792 71.4558 95.5378 71.4558 96.4962C71.4558 97.4347 71.6355 98.2833 71.9949 99.0421C72.3743 99.8008 72.8934 100.4 73.5524 100.839C74.2113 101.278 74.9701 101.498 75.8286 101.498Z" fill="white"/>
<path d="M101.201 102.666C101.201 103.185 101.021 103.625 100.661 103.984C100.322 104.323 99.8927 104.493 99.3735 104.493C98.8743 104.493 98.455 104.323 98.1156 103.984C97.7761 103.625 97.6064 103.185 97.6064 102.666V84.1564C97.6064 83.6373 97.7761 83.208 98.1156 82.8685C98.475 82.5091 98.9143 82.3294 99.4334 82.3294C99.9526 82.3294 100.372 82.5091 100.691 82.8685C101.031 83.208 101.201 83.6373 101.201 84.1564V102.666Z" fill="white"/>
<path d="M123.333 104.793C121.816 104.793 120.398 104.513 119.08 103.954C117.762 103.395 116.604 102.626 115.606 101.648C114.608 100.649 113.819 99.5013 113.24 98.2034C112.681 96.9056 112.401 95.5079 112.401 94.0103C112.401 92.5127 112.681 91.115 113.24 89.8172C113.819 88.5193 114.608 87.3811 115.606 86.4027C116.604 85.4044 117.762 84.6256 119.08 84.0666C120.398 83.5075 121.816 83.2279 123.333 83.2279C124.272 83.2279 125.18 83.3278 126.059 83.5274C126.937 83.7271 127.746 84.0266 128.485 84.426C128.784 84.5857 129.004 84.8053 129.144 85.0849C129.304 85.3445 129.383 85.614 129.383 85.8936C129.383 86.3728 129.224 86.8021 128.904 87.1815C128.585 87.5608 128.175 87.7505 127.676 87.7505C127.517 87.7505 127.347 87.7306 127.167 87.6906C127.007 87.6507 126.848 87.5908 126.688 87.5109C126.189 87.2913 125.66 87.1216 125.1 87.0018C124.541 86.882 123.952 86.8221 123.333 86.8221C122.035 86.8221 120.847 87.1515 119.769 87.8104C118.711 88.4494 117.862 89.318 117.223 90.4162C116.604 91.4944 116.295 92.6925 116.295 94.0103C116.295 95.3082 116.604 96.5062 117.223 97.6044C117.862 98.7026 118.711 99.5812 119.769 100.24C120.847 100.879 122.035 101.199 123.333 101.199C123.932 101.199 124.591 101.139 125.31 101.019C126.029 100.899 126.618 100.739 127.077 100.54L126.808 101.438V96.3165L127.317 96.7658H123.992C123.473 96.7658 123.034 96.5961 122.674 96.2566C122.335 95.9172 122.165 95.4879 122.165 94.9687C122.165 94.4496 122.335 94.0203 122.674 93.6808C123.034 93.3414 123.473 93.1717 123.992 93.1717H128.904C129.423 93.1717 129.853 93.3514 130.192 93.7108C130.532 94.0502 130.701 94.4795 130.701 94.9987V101.348C130.701 101.748 130.601 102.077 130.402 102.337C130.222 102.596 130.012 102.806 129.773 102.966C128.854 103.525 127.846 103.974 126.748 104.313C125.67 104.633 124.531 104.793 123.333 104.793Z" fill="white"/>
<path d="M145.645 104.493C145.126 104.493 144.696 104.323 144.357 103.984C144.017 103.625 143.848 103.185 143.848 102.666V90.2964C143.848 89.7772 144.017 89.3479 144.357 89.0085C144.696 88.6491 145.126 88.4694 145.645 88.4694C146.164 88.4694 146.593 88.6491 146.933 89.0085C147.272 89.3479 147.442 89.7772 147.442 90.2964V93.1118L147.232 91.1051C147.452 90.6258 147.731 90.2065 148.071 89.8471C148.43 89.4677 148.829 89.1582 149.269 88.9186C149.708 88.659 150.177 88.4694 150.676 88.3496C151.176 88.2298 151.675 88.1698 152.174 88.1698C152.773 88.1698 153.272 88.3396 153.672 88.679C154.091 89.0185 154.301 89.4178 154.301 89.8771C154.301 90.536 154.131 91.0152 153.791 91.3147C153.452 91.5943 153.083 91.734 152.683 91.734C152.304 91.734 151.954 91.6641 151.635 91.5244C151.335 91.3846 150.986 91.3147 150.587 91.3147C150.227 91.3147 149.858 91.4046 149.478 91.5843C149.119 91.744 148.78 92.0036 148.46 92.363C148.161 92.7224 147.911 93.1717 147.711 93.7108C147.532 94.2299 147.442 94.8489 147.442 95.5678V102.666C147.442 103.185 147.272 103.625 146.933 103.984C146.593 104.323 146.164 104.493 145.645 104.493Z" fill="white"/>
<path d="M176.555 96.4962C176.555 98.1336 176.186 99.5812 175.447 100.839C174.728 102.077 173.75 103.046 172.512 103.744C171.294 104.443 169.926 104.793 168.409 104.793C166.891 104.793 165.513 104.443 164.276 103.744C163.058 103.046 162.079 102.077 161.34 100.839C160.621 99.5812 160.262 98.1336 160.262 96.4962C160.262 94.8589 160.621 93.4213 161.34 92.1833C162.079 90.9253 163.058 89.9469 164.276 89.2481C165.513 88.5293 166.891 88.1698 168.409 88.1698C169.926 88.1698 171.294 88.5293 172.512 89.2481C173.75 89.9469 174.728 90.9253 175.447 92.1833C176.186 93.4213 176.555 94.8589 176.555 96.4962ZM172.961 96.4962C172.961 95.4779 172.752 94.5993 172.332 93.8605C171.933 93.1018 171.384 92.5127 170.685 92.0934C170.006 91.6741 169.247 91.4645 168.409 91.4645C167.57 91.4645 166.801 91.6741 166.103 92.0934C165.424 92.5127 164.875 93.1018 164.455 93.8605C164.056 94.5993 163.856 95.4779 163.856 96.4962C163.856 97.4946 164.056 98.3732 164.455 99.1319C164.875 99.8707 165.424 100.45 166.103 100.869C166.801 101.288 167.57 101.498 168.409 101.498C169.247 101.498 170.006 101.288 170.685 100.869C171.384 100.45 171.933 99.8707 172.332 99.1319C172.752 98.3732 172.961 97.4946 172.961 96.4962Z" fill="white"/>
</svg>
