<svg width="38" height="38" viewBox="0 0 38 38" fill="none" xmlns="http://www.w3.org/2000/svg">
<path d="M10.875 0H26.625C32.625 0 37.5 4.875 37.5 10.875V26.625C37.5 29.5092 36.3542 32.2753 34.3148 34.3148C32.2753 36.3542 29.5092 37.5 26.625 37.5H10.875C4.875 37.5 0 32.625 0 26.625V10.875C0 7.99077 1.14576 5.22467 3.18521 3.18521C5.22467 1.14576 7.99077 0 10.875 0ZM10.5 3.75C8.70979 3.75 6.9929 4.46116 5.72703 5.72703C4.46116 6.9929 3.75 8.70979 3.75 10.5V27C3.75 30.7312 6.76875 33.75 10.5 33.75H27C28.7902 33.75 30.5071 33.0388 31.773 31.773C33.0388 30.5071 33.75 28.7902 33.75 27V10.5C33.75 6.76875 30.7312 3.75 27 3.75H10.5ZM28.5937 6.5625C29.2153 6.5625 29.8115 6.80943 30.251 7.24897C30.6906 7.68851 30.9375 8.28465 30.9375 8.90625C30.9375 9.52785 30.6906 10.124 30.251 10.5635C29.8115 11.0031 29.2153 11.25 28.5937 11.25C27.9721 11.25 27.376 11.0031 26.9365 10.5635C26.4969 10.124 26.25 9.52785 26.25 8.90625C26.25 8.28465 26.4969 7.68851 26.9365 7.24897C27.376 6.80943 27.9721 6.5625 28.5937 6.5625ZM18.75 9.375C21.2364 9.375 23.621 10.3627 25.3791 12.1209C27.1373 13.879 28.125 16.2636 28.125 18.75C28.125 21.2364 27.1373 23.621 25.3791 25.3791C23.621 27.1373 21.2364 28.125 18.75 28.125C16.2636 28.125 13.879 27.1373 12.1209 25.3791C10.3627 23.621 9.375 21.2364 9.375 18.75C9.375 16.2636 10.3627 13.879 12.1209 12.1209C13.879 10.3627 16.2636 9.375 18.75 9.375ZM18.75 13.125C17.2582 13.125 15.8274 13.7176 14.7725 14.7725C13.7176 15.8274 13.125 17.2582 13.125 18.75C13.125 20.2418 13.7176 21.6726 14.7725 22.7275C15.8274 23.7824 17.2582 24.375 18.75 24.375C20.2418 24.375 21.6726 23.7824 22.7275 22.7275C23.7824 21.6726 24.375 20.2418 24.375 18.75C24.375 17.2582 23.7824 15.8274 22.7275 14.7725C21.6726 13.7176 20.2418 13.125 18.75 13.125Z" fill="white"/>
</svg>
