<svg width="52" height="49" viewBox="0 0 52 49" fill="none" xmlns="http://www.w3.org/2000/svg">
<path d="M27.0833 14.3763C26.731 14.3206 26.3691 14.2916 26 14.2916C22.4101 14.2916 19.5 17.0339 19.5 20.4166C19.5 23.7994 22.4101 26.5416 26 26.5416C29.5899 26.5416 32.5 23.7994 32.5 20.4166C32.5 20.0688 32.4692 19.7278 32.4101 19.3958" stroke="#1C274C" stroke-width="5" stroke-linecap="round"/>
<path d="M10.8334 31.0662C9.43052 27.6895 8.66669 24.0944 8.66669 20.7093C8.66669 11.527 16.4271 4.08337 26 4.08337C35.573 4.08337 43.3334 11.527 43.3334 20.7093C43.3334 29.8195 37.8011 40.4504 29.1697 44.252C27.1576 45.1383 24.8425 45.1383 22.8303 44.252C20.0736 43.0379 17.633 41.1271 15.5878 38.7917" stroke="#1C274C" stroke-width="5" stroke-linecap="round"/>
</svg>
