<svg width="1438" height="542" viewBox="0 0 1438 542" fill="none" xmlns="http://www.w3.org/2000/svg">
<mask id="mask0_675_3859" style="mask-type:luminance" maskUnits="userSpaceOnUse" x="0" y="0" width="1462" height="542">
<path d="M1461.54 0H0V541.31H1461.54V0Z" fill="white"/>
</mask>
<g mask="url(#mask0_675_3859)">
<g filter="url(#filter0_d_675_3859)">
<path fill-rule="evenodd" clip-rule="evenodd" d="M-66.8517 134.473C-47.4187 114.195 -16.3584 105.946 10.5664 113.892C37.502 121.839 59.1002 145.645 64.3942 173.22C83.5025 172.971 103.823 173.934 119.608 184.706C135.392 195.467 143.577 219.448 131.495 234.258C147.171 243.092 155.486 263.218 150.625 280.54C180.711 279.435 212.973 284.123 235.589 303.989C258.216 323.866 265.816 362.591 244.824 384.179C255.888 391.671 267.115 400.624 271.185 413.345C278.612 436.578 259.103 459.648 238.826 473.192C220.93 485.144 198.877 494.422 178.221 488.392C174.648 487.353 170.924 485.848 167.319 486.811C161.559 488.349 159.275 495.061 157.207 500.658C141.087 544.223 90.3121 564.013 44.1492 569.177C16.2934 572.295 -12.4826 571.894 -39.0392 562.898C-65.5851 553.901 -89.7924 535.453 -101.225 509.86C-112.657 484.267 -109.16 451.442 -89.2295 431.728C-120.615 424.896 -153.721 417.177 -176.922 394.951C-196.517 376.146 -206.477 348.68 -207.3 321.539C-207.852 303.448 -204.041 284.145 -191.472 271.132C-177.864 257.036 -157.11 253.128 -137.774 249.934C-140.383 238.556 -148.362 229.213 -152.768 218.408C-162.263 195.121 -153.137 166.713 -134.115 150.268C-115.093 133.823 -88.0711 128.529 -63.2466 132.502" fill="#D9D9D9"/>
</g>
<g filter="url(#filter1_d_675_3859)">
<path fill-rule="evenodd" clip-rule="evenodd" d="M1347.9 438.982C1350.03 408.03 1331.49 376.688 1303.35 363.621C1275.22 350.554 1239.31 356.638 1217.04 378.225C1210.07 341.514 1170.85 318.909 1133.65 315.379C1117.37 313.831 1100.26 315.141 1085.98 323.098C1071.7 331.056 1060.95 346.775 1062.47 363.058C1037.97 354.31 1009.99 351.929 986.418 362.95C962.86 373.971 945.776 400.787 951.59 426.142C952.608 430.592 954.286 435.117 953.366 439.588C952.142 445.575 946.729 449.602 942.258 453.771C917.022 477.263 917.271 522.593 942.756 545.815C953.918 555.981 968.403 561.783 983.062 565.378C1005.14 570.791 1028.32 571.624 1050.71 567.803C1052.9 582.007 1063.47 593.883 1076.08 600.779C1088.68 607.676 1103.18 610.242 1117.47 611.746C1138.05 613.912 1158.84 614.063 1179.45 612.201C1207.6 609.668 1240.48 598.809 1247.56 571.451C1248.29 568.604 1248.64 565.345 1246.99 562.899C1245.35 560.452 1241.01 559.921 1239.69 562.552C1265.31 569.08 1294.13 561.091 1312.74 542.307C1331.35 523.513 1339.06 494.618 1332.28 469.057C1331.13 464.737 1329.61 460.18 1330.99 455.925C1332.57 451.064 1337.4 448.195 1341.07 444.655C1344.74 441.115 1347.35 434.89 1343.87 431.155" fill="#F7FAFB"/>
</g>
<g filter="url(#filter2_d_675_3859)">
<path fill-rule="evenodd" clip-rule="evenodd" d="M1548.22 247.888C1546.58 231.876 1535.06 218.03 1520.87 210.43C1506.69 202.83 1490.16 200.718 1474.07 200.902C1449.92 201.173 1425.38 206.543 1405.06 219.588C1384.74 232.634 1369.09 253.983 1366.15 277.952C1329.46 268.599 1287.48 291.031 1274.87 326.735C1242.02 323.585 1209.6 346.222 1197.42 376.893C1185.25 407.564 1191.9 443.886 1210.75 470.973C1229.59 498.06 1259.36 516.345 1291.06 525.493C1322.76 534.631 1356.39 535.194 1389.23 531.946C1441.81 526.738 1495.45 510.694 1533.75 474.286C1572.04 437.877 1590.82 377.748 1568.1 330.048C1560.68 314.491 1549.13 300.125 1547.77 282.943C1546.93 272.377 1550.13 261.8 1549.19 251.244C1548.24 240.689 1540.62 229.17 1530.06 229.917" fill="#F6F6F6"/>
</g>
<g filter="url(#filter3_d_675_3859)">
<path fill-rule="evenodd" clip-rule="evenodd" d="M209.379 494.065C180.31 495.483 157.662 462.701 162.685 434.044C167.709 405.376 193.237 383.735 220.984 374.944C247.985 366.391 281.99 370.094 298.121 393.381C315.768 373.991 345.388 366.543 370.104 375.258C394.831 383.984 413.214 408.364 414.784 434.531C441.655 426.585 472.986 426.119 495.298 443.073C517.6 460.027 523.576 498.363 501.48 515.587C527.268 530.311 536.719 567.748 521 592.951C512.826 606.051 499.607 615.123 486.194 622.766C466.815 633.798 445.855 642.762 423.716 645.361C401.565 647.959 378.04 643.683 360.155 630.366C345.659 619.573 335.839 603.799 326.356 588.415C306.154 609.872 276.479 622.063 247.021 620.991C217.574 619.93 188.852 605.629 170.242 582.774C166.312 577.946 162.718 572.533 161.7 566.394C159.665 554.128 168.098 542.847 176.034 533.277C186.33 520.849 196.625 508.431 206.91 496.002" fill="black"/>
</g>
<path d="M1462.1 338.839C1456.76 336.555 1448.97 335.797 1442.83 336.046C1431.76 336.804 1421.92 340.355 1411.27 341.384C1401.85 342.39 1392.42 339.099 1383 340.615C1374.4 341.882 1365.79 344.166 1356.79 344.935C1354.42 345.108 1352.07 345.324 1349.7 345.584V282.846L1358.07 281.32L1362.67 271.89C1360.77 270.418 1356.53 269.898 1356.53 269.898L1355.76 268.469L1353.77 267.138L1352.21 267.614L1349.71 266.954L1348.84 261.616L1352.21 259.906V257.816L1347.47 256.961L1346.69 255.532H1344.06V225.478H1345.01C1346.03 225.478 1346.85 224.97 1346.85 224.331C1346.85 223.692 1346.03 223.194 1345.01 223.194H1344.06V222.176H1345.01C1346.03 222.176 1346.85 221.668 1346.85 221.029C1346.85 220.39 1346.03 219.892 1345.01 219.892H1344.06V194.819H1345.1V196.334H1347L1347.87 195.252V191.82L1347 191.311H1336.48L1335.58 191.82V195.252L1336.48 196.334H1338.36V194.819H1339.36V219.892H1338.44C1337.42 219.892 1336.6 220.401 1336.6 221.029C1336.6 221.657 1337.42 222.176 1338.44 222.176H1339.36V223.194H1338.44C1337.42 223.194 1336.6 223.703 1336.6 224.331C1336.6 224.959 1337.42 225.478 1338.44 225.478H1339.36V255.532H1333.74V257.665L1330.7 259.916L1333.74 261.681V267.906H1326.87L1324.87 269.714H1317.81L1316.13 271.241L1320.43 279.62L1333.74 282.857V348.193C1324.52 350.11 1322.02 350.651 1311.71 348.756C1304.34 347.479 1303.93 349.265 1297.39 351.041C1293.26 352.307 1290.42 352.058 1285.9 352.058C1271.55 351.798 1259.67 352.567 1245.74 354.083C1239.6 354.841 1234.68 356.367 1228.56 357.385C1225.53 358.013 1219.05 358.305 1215.64 359.485H1212.45C1212.08 359.453 1211.7 359.42 1211.34 359.42L1211.51 359.485H1198.63V348.226H1156.03V359.485H1144.37V309.977H1120.64V289.624H1090.35L1042.87 297.851V310.41L999.994 314.892V318.638H976.241V313.593L966.465 311.428H954.589L953.192 314.318H942.94L933.164 316.05V321.095H930.836V317.49H919.902V314.751H903.37V321.528H907.311V324.127H898.931V328.176H881.707V332.788H869.127V352.697H846.76V309.977H844.432V282.554H831.408V279.371H823.007V208.665H776.444V316.321H744.766V279.663H730.324V276.481L721.014 272.15H717.29V276.773H714.962V280.53H705.651V329.594L703.778 330.752V350.965L692.617 269.563L689.823 269.281V185.573L643.228 137.656H609.71V257.73H588.263V362.787L576.257 365.234V358.781L565.723 360.124V358.013L555.438 359.507L554.464 358.9H552.84V359.896L543.713 360.449V362.473C415.986 332.084 128.182 259.061 105.306 252.187L103.314 241.339L101.615 242.941L100.987 240.613H99.9149L96.3423 246.048V251.818L92.9429 263.89L94.1446 264.864L4.99087 368.98H-0.259842V550.437H1464.99V347.717C1464.99 344.166 1466.22 340.864 1462.13 338.829L1462.1 338.839ZM132.567 328.36L156.417 351.322V360.86L132.567 328.36ZM543.681 370.419V378.29H527.95V370.419H543.681ZM527.95 366.76V365.331C529.986 365.84 531.891 366.305 533.699 366.76H527.95ZM485.187 372.855V370.419H493.599V376.071H489.301V372.855H485.187ZM420.608 373.299V375.302H419.006V373.635H412.023V376.515H391.627V372.974H389.126V372.087H386.257V373.083H383.215V374.966H376.773V376.515H360.848V373.31H342.248V373.97H335.991V370.43H439.565V374.966H430.634V373.31H420.608V373.299ZM208.426 366.76L195.283 357.731V350.813L221.536 366.76H208.426ZM222.262 366.76L195.283 350.369V345.682L225.336 362.592V366.76H222.262ZM225.336 362.181L195.283 345.27V340.853L225.336 356.443V362.17V362.181ZM225.336 356.042L195.283 340.453V339.565H193.973V336.49L225.336 352.123V356.042ZM193.973 311.85L240.601 327.526V328.749L193.973 312.521V311.85ZM163.833 302.03L137.482 292.861L164.764 302.03H163.844H163.833ZM189.318 300.904L192.944 302.03H189.318V300.904ZM189.285 300.547L178.849 297.321L240.601 316.137V316.44L189.318 300.558H189.285V300.547ZM274.466 324.419V323.141H275.537V322.145H274.466V321.799L428.793 366.76H407.888L274.476 326.108V325.426H275.548V324.43H274.476L274.466 324.419ZM274.466 320.998L434.12 366.76H429.973L274.466 321.463V321.009V320.998ZM240.601 311.59L176.629 292.958L240.601 311.298V311.601V311.59ZM274.466 344.902V343.625H275.537V342.629H274.466V341.351H275.537V341.265L348.809 366.76H332.18L274.715 345.898H275.537V344.902H274.466ZM275.537 340.896V340.344H274.466V339.067H274.964L357.319 366.749H349.838L275.527 340.886L275.537 340.896ZM274.466 338.071V336.793H275.537V335.797H274.466V334.52H275.537V334.163L375.853 366.76H358.38L275.537 338.915V338.082H274.466V338.071ZM376.946 366.76L275.537 333.805V333.513H274.65L274.455 333.459V332.582L382.067 366.76H376.936H376.946ZM274.466 331.239V329.962H275.537V328.966H274.466V327.688H275.537V327.591L402.042 366.76H383.161L274.487 332.246H275.548V331.239H274.476H274.466ZM403.178 366.76L275.537 327.245V326.768L406.751 366.749H403.167L403.178 366.76ZM275.278 326.692H274.466V326.443L275.278 326.692ZM193.973 302.334L240.601 316.776V321.474L193.973 306.664V302.334ZM240.601 321.821V322.449L193.973 307.303V307.021L240.601 321.831V321.821ZM171.346 299.941L155.172 294.679L171.725 299.941H171.346ZM240.601 322.795V327.158L193.973 311.482V307.649L240.601 322.795ZM240.601 329.085V329.204H228.779L193.973 316.57V312.857L240.601 329.085ZM227.794 329.204H225.336V330.135L193.973 318.367V316.927L227.794 329.204ZM225.336 330.503V334.52L193.973 322.178V318.724L225.336 330.492V330.503ZM317.911 366.749L317.5 365.104L321.895 366.749H317.911ZM301.888 364.638L275.537 354.267V353.985H274.823L274.466 353.845V352.708H275.537V351.712H274.466V350.434H275.537V349.438H274.466V348.94L316.287 364.638H301.888ZM225.336 334.888V337.367L193.973 324.473V322.557L225.336 334.899V334.888ZM225.336 337.735V342.271L193.973 328.544V324.841L225.336 337.735ZM275.537 364.627L280.388 366.749H275.537V364.627ZM284.112 364.627V366.739H281.221L275.527 364.249V359.16H274.455V357.926L290.781 364.638H284.112V364.627ZM225.326 342.639V345.768L193.962 331.434V328.912L225.326 342.639ZM225.326 346.158V351.701L193.962 336.068V331.813L225.326 346.158ZM274.455 371.61V370.398H284.112V372.834L274.455 375.497V371.621V371.61ZM291.69 364.627L274.455 357.547V357.255H275.527V356.259H274.455V354.981H275.527V354.646L300.936 364.638H291.69V364.627ZM322.859 366.739L317.392 364.692V364.638H317.24L274.444 348.583V348.161H275.516V347.165H274.444V346.147L331.184 366.739H322.848H322.859ZM435.3 366.739L275.169 320.846H275.516V319.85H274.444V317.22H265.144V314.524H269.973V314.502L439.554 361.758V366.739H435.3ZM265.155 312.564L268.674 313.528H267.732L265.155 312.813V312.564ZM240.591 305.971L197.491 293.965L240.591 305.82V305.982V305.971ZM458.684 366.749L441.709 362.018V361.109L462.192 366.749H458.684ZM439.565 361.423L269.984 314.167V313.907L439.565 360.535V361.434V361.423ZM266.487 313.539H265.155V313.171L266.487 313.539ZM441.709 370.409H452.264V373.288H448.324V374.62H444.394V375.833H441.709V370.409ZM441.709 366.749V362.365L457.45 366.749H441.709ZM463.404 366.749L441.709 360.784V356.67H439.565V360.2L269.984 313.571V313.539H269.886L265.155 312.239V310.096H269.984V309.63C353.952 332.463 445.541 357.222 482.404 366.749H463.404ZM265.155 308.32C266.119 308.58 267.082 308.84 268.057 309.111H265.155V308.32ZM485.176 366.749V361.217C489.853 362.386 494.248 363.491 498.048 364.422H493.588V366.749H485.176ZM507.716 361.867V364.855H503.959V363.415H500.203V364.411H499.391C495.244 363.382 490.448 362.192 485.165 360.871V355.209H483.195V360.373C442.38 350.131 371.717 332.03 298.543 313.008C214.987 291.28 125.183 267.571 107.039 261.822L106.194 257.286C161.689 273.817 416.408 337.529 514.071 361.867H507.705H507.716ZM298.348 313.3C371.642 332.355 442.402 350.488 483.195 360.719V366.619C446.689 357.201 354.45 332.257 269.984 309.295V309.1H269.28C267.894 308.721 266.519 308.353 265.155 307.974V305.159H254.794C184.976 286.17 123.375 269.324 107.612 265.016L107.093 262.179C130.521 269.552 257.317 302.615 298.337 313.29L298.348 313.3ZM253.571 305.17H240.591V305.484L108.381 269.13L107.699 265.373C123.808 269.779 184.587 286.397 253.582 305.17H253.571ZM240.591 306.328V310.951L109.139 273.276L108.446 269.508L240.591 306.328ZM240.591 311.926V315.78L109.604 275.863L109.215 273.655L240.591 311.926ZM188.17 300.536H184.543V299.941H172.797L110.395 280.118L109.691 276.232L188.17 300.526V300.536ZM170.469 300.017V300.536H167.849V302.02H165.792L111.023 283.604L110.46 280.519L170.458 300.017H170.469ZM162.793 302.02H161.321V304.726L111.607 286.679L111.12 284.037L162.793 302.02ZM161.321 305.083V306.123L111.748 287.512L111.661 287.058L161.31 305.083H161.321ZM161.321 306.48V309.338L112.224 290.013L111.835 287.891L161.321 306.469V306.48ZM161.321 309.706V311.059L112.387 290.944L112.289 290.425L161.321 309.717V309.706ZM161.321 311.428V314.264L112.766 293.012L112.463 291.345L161.321 311.428ZM161.321 314.632V316.516L113.036 294.441L112.841 293.413L161.321 314.632ZM161.321 316.906V319.807L113.285 295.859L113.112 294.863L161.321 316.906ZM161.321 320.208V322.817L113.697 298.111L113.361 296.303L161.31 320.197L161.321 320.208ZM161.321 323.228V326.151L113.957 299.508L113.783 298.566L161.321 323.228ZM161.321 326.573V329.215H160.455L114.26 301.153L114.043 299.973L161.321 326.573ZM159.74 329.215H156.406V331.012L114.455 302.182L114.357 301.63L159.751 329.204L159.74 329.215ZM156.406 331.478V336.501L117.226 307.454L114.812 304.163L114.552 302.702L156.417 331.467L156.406 331.478ZM195.283 358.197L207.744 366.76H197.221L195.283 365.32V358.197ZM196.582 366.76H195.283V365.797L196.582 366.76ZM161.224 267.246C197.73 276.654 245.83 288.898 296.681 301.716C400.829 327.981 489.485 349.893 543.681 362.798V366.76H535.041C532.865 366.219 530.473 365.623 527.95 364.996V361.888H515.446C418.476 337.735 161.245 273.406 106.162 256.95L105.35 252.511C109.442 253.746 122.13 257.177 161.234 267.257L161.224 267.246ZM6.17092 368.969L94.8266 265.427L96.483 266.759V266.878L33.4096 368.958H6.17092V368.969ZM34.5572 368.969L96.483 268.751V304.131L119.64 368.98H34.5572V368.969ZM118.006 308.526L156.406 336.988V341.535C143.046 330.655 128.626 318.778 120.019 311.276L118.006 308.526ZM156.406 342.055V350.748L131.116 326.4L121.102 312.748C129.925 320.392 143.674 331.705 156.406 342.066V342.055ZM135.934 368.969L121.524 336.707L142.841 368.969H135.934Z" fill="#D9D9D9"/>
<g opacity="0.7" filter="url(#filter4_d_675_3859)">
<path fill-rule="evenodd" clip-rule="evenodd" d="M1464.84 566.135H-1.93788V363.371C0.595448 363.956 -0.411402 362.473 0.974351 363.371C20.0393 374.057 34.1891 393.078 56.3395 400.191C59.0461 401.057 80.7851 404.673 81.597 404.522C85.6893 403.753 90.756 401.566 95.1947 401.274C103.618 401.999 112.029 402.714 120.452 403.439C131.982 400.083 141.607 387.957 160.282 392.602C163.356 393.371 169.094 395.114 171.942 395.861C180.624 398.112 190.541 394.312 198.163 396.943C207.722 400.224 213.049 410.693 223.42 412.089C227.393 407.856 240.417 397.614 246.729 396.943C248.31 398.296 261.658 406.048 263.239 406.687C277.898 392.44 292.513 391.541 313.754 398.026H336.099C343.753 400.137 353.919 402.941 361.357 406.687C368.892 410.487 379.415 415.488 386.614 420.761C387.892 421.692 389.981 425.719 391.475 426.174C396.639 427.744 413.431 409.816 418.681 407.769V408.863C427.267 418.238 427.126 419.007 444.913 418.606C457.353 428.772 464.628 411.829 479.882 415.359C495.58 418.996 512.566 413.724 524.562 409.945C537.001 406.026 548.477 407.921 560.505 403.45C574.427 398.264 586.964 388.066 602.272 383.963C615.426 380.433 628.417 391.075 636.277 394.789C644.105 398.491 651.585 398.87 658.622 403.45C666.45 408.549 669.373 419.386 681.931 420.772C689.899 413.908 701.104 410.086 707.189 401.285C722.237 407.261 738.78 414.276 752.843 420.772C756.405 421.497 759.966 422.222 763.528 422.937C768.844 425.514 785.516 436.242 793.636 433.763C811.51 428.307 823.819 395.915 845.114 395.871C852.054 401.079 860.12 402.129 868.423 405.615C881.902 411.266 909.444 429.887 928.649 424.02C950.583 417.318 968.988 401.057 990.813 394.789C995.436 393.468 1003.23 395.2 1006.35 395.871C1013.14 397.322 1019.91 391.368 1028.69 393.695C1039.95 396.683 1057.83 405.182 1074.35 400.202C1084.07 397.268 1090.86 386.637 1100.57 385.034C1104.39 384.406 1109.12 388.683 1115.14 387.2C1120.38 385.911 1130.76 382.848 1138.45 385.034C1144.86 386.853 1152.07 392.526 1157.88 393.695C1159.88 394.107 1166.76 391.898 1168.57 391.53C1175.98 390.047 1187.22 397.344 1190.91 401.274C1197.3 398.177 1203.8 392.981 1210.34 391.53C1212.64 393.555 1218.46 397.095 1221.02 398.026C1229.44 397.669 1237.86 397.3 1246.28 396.943C1254.05 398.026 1261.83 399.098 1269.59 400.191C1273.15 399.466 1276.71 398.74 1280.27 398.026C1297.14 400.83 1307.89 413.865 1323.02 418.596H1340.5C1350.68 420.869 1370.2 421.443 1381.29 418.596H1400.73C1404.4 417.437 1408.14 413.648 1411.41 412.1C1422.7 406.763 1434.63 405.767 1444.43 399.108C1450.22 395.179 1455.58 389.462 1462.89 387.2C1462.56 387.925 1462.24 388.65 1461.92 389.365H1462.89C1466.22 390.35 1464.83 401.382 1464.83 408.863V566.146L1464.84 566.135Z" fill="black"/>
</g>
<path d="M1466.95 500.365L1467.23 499.489L1466.04 498.59V495.84L1462.46 491.012C1462.49 490.849 1462.5 490.676 1462.5 490.492C1462.5 489.929 1462.33 489.485 1462.1 489.442H1462.08H1462.06C1462.06 489.442 1462.03 489.442 1462.02 489.442L1458.15 489.669H1454.82C1454.12 489.215 1453.06 488.911 1451.88 488.89L1447 484.126H1445.68V482.426H1446.01V482.232H1445.24V481.864H1444.78V481.69H1443.94V481.387H1443.38V482.221H1442.61V482.416H1442.97V484.115H1425.74V482.989H1426.1V482.795H1424.84V482.73H1425.18V482.524H1421.78V482.73H1422.14V484.115H1416.51V483.228H1412.54L1410.99 482.849V480.781H1411.68V480.564H1410.6V479.839H1410V479.222H1408.9C1408.94 479.157 1408.99 479.092 1408.99 479.016C1408.99 478.789 1408.69 478.605 1408.36 478.605C1408.33 478.605 1408.33 478.605 1408.3 478.605C1408.26 478.399 1408.01 478.258 1407.69 478.258C1407.33 478.258 1407.07 478.442 1407.07 478.67V478.691C1407.02 478.529 1406.79 478.41 1406.54 478.41C1406.24 478.41 1405.99 478.572 1405.99 478.767C1405.99 478.865 1406.05 478.951 1406.15 479.016H1406.01V479.828H1405.29V480.857H1404.84V479.406C1405.12 479.384 1405.33 479.298 1405.33 479.211C1405.33 479.092 1404.99 479.005 1404.59 479.005C1404.19 479.005 1403.85 479.092 1403.85 479.211C1403.85 479.298 1404.06 479.374 1404.34 479.406V480.857H1403.61V481.225H1403.83V481.55H1402.58V481.019H1401.93V482.004H1401.48V481.366H1400.93V482.004H1400.56V481.127H1399.66V482.004H1397.99V481.56H1397.28V482.004H1396.98V481.019H1396.2V482.004H1395.1V481.56H1394.4V482.004H1393.78V481.669C1393.93 481.636 1394.04 481.593 1394.04 481.56C1394.04 481.463 1393.4 481.366 1392.62 481.366C1391.84 481.366 1391.19 481.463 1391.19 481.56C1391.19 481.604 1391.29 481.636 1391.42 481.658V482.004H1390.86V482.34H1391.19V483.238H1383.13V481.853H1383.47V481.647H1380.09V481.853H1380.43V481.907H1379.16V482.113H1379.52V483.249H1362.3V481.56H1362.65V481.355H1361.88V480.51H1361.32V480.813H1360.48V480.976H1360.03V481.344H1359.27V481.55H1359.61V483.238H1358.28L1353.4 488.002C1352.21 488.024 1351.16 488.316 1350.46 488.781H1347.13L1343.25 488.554C1343.25 488.554 1343.22 488.543 1343.21 488.543C1343.2 488.543 1343.2 488.543 1343.2 488.543H1343.17C1342.96 488.587 1342.77 489.041 1342.77 489.593C1342.77 489.777 1342.79 489.962 1342.82 490.113L1339.23 494.942V497.691L1338.04 498.59L1338.33 499.467L1335.5 502.466V502.671H1336.55L1336.61 502.996L1338.44 504.382V504.566L1337.91 504.728V504.923L1338.44 505.324V505.692H1337.65V505.789H1337.85V505.93H1337.65C1337.65 505.93 1338 506.179 1337.91 506.58H1338.44V506.98H1338.04V507.186H1338.44V507.522H1338.15L1338.4 507.825H1338.44V512.794H1338.05L1338.3 513.097H1338.44V520.015H1338V520.535H1337.73V522.505L1336.72 522.776V523.079L1337.58 523.349V526.857H1325.61V521.087L1326.76 520.383H1327.1V519.928C1327.1 519.82 1327.1 519.571 1327.04 519.474C1326.91 519.268 1326.63 519.387 1326.46 519.214C1326.41 519.257 1326.28 519.29 1326.23 519.333C1325.88 519.127 1325.86 518.759 1325.77 518.499C1325.72 518.348 1325.51 518.25 1325.45 518.142C1325.41 518.001 1325.57 517.839 1325.64 517.698C1325.78 517.395 1325.64 517.135 1325.78 516.886C1325.81 516.8 1326.01 516.605 1325.99 516.507C1325.93 516.269 1325.71 516.497 1325.55 516.551C1325.62 516.475 1325.72 516.399 1325.72 516.302C1325.53 516.302 1325.38 516.388 1325.2 516.41C1324.82 516.475 1325.05 516.377 1324.86 516.345C1324.56 516.291 1324.42 516.529 1324.23 516.572V516.161C1324.49 515.988 1324.63 515.76 1324.63 515.522C1324.63 514.992 1323.96 514.58 1323.12 514.58H1322.95V514.082H1322.41L1321.49 454.744L1322.18 454.322H1323.19V451.28H1322.81V448.476H1320.63V447.49H1320.72V446.938C1321.1 446.841 1321.3 446.733 1321.3 446.613C1321.3 446.494 1321.09 446.375 1320.72 446.278V445.78C1320.72 445.78 1320.16 445.542 1320.16 445.423C1320.16 444.297 1318.92 443.333 1317.18 442.954V442.77H1317.46C1317.46 442.77 1317.53 442.759 1317.53 442.738C1317.53 442.716 1317.49 442.694 1317.46 442.694H1317.18V442.37H1317.15C1317.15 442.37 1317.18 442.337 1317.18 442.326C1317.18 442.25 1316.96 442.186 1316.62 442.142C1316.65 441.947 1316.21 441.969 1316.18 441.774C1316.16 441.612 1316.3 441.395 1316.38 441.254C1316.47 441.092 1316.73 441.06 1316.87 440.93C1316.91 440.908 1316.91 440.854 1316.94 440.811C1317 440.756 1317.04 440.767 1317.09 440.724C1317.23 440.637 1317.19 440.583 1317.28 440.464C1317.34 440.378 1317.46 440.356 1317.5 440.269C1317.54 440.183 1317.5 440.064 1317.53 439.966C1317.53 439.76 1317.55 439.555 1317.53 439.338C1317.53 439.133 1317.44 438.938 1317.42 438.732C1317.41 438.624 1317.41 438.537 1317.35 438.44C1317.32 438.364 1317.26 438.245 1317.35 438.158C1317.42 438.093 1317.56 438.115 1317.67 438.082C1317.79 438.05 1318.09 437.779 1318 437.703C1317.97 437.714 1317.88 437.725 1317.85 437.736C1317.72 437.584 1317.83 437.346 1317.78 437.184C1317.69 436.978 1317.5 436.751 1317.75 436.556C1317.84 436.48 1317.97 436.415 1317.94 436.307C1317.78 436.318 1317.81 436.458 1317.68 436.491C1317.53 436.534 1317.48 436.199 1317.46 436.134C1317.39 435.971 1317.24 435.809 1316.99 435.722C1316.87 435.679 1316.69 435.646 1316.55 435.646C1316.44 435.646 1316.25 435.701 1316.16 435.646C1315.97 435.527 1316.27 435.268 1316.31 435.159C1316.39 434.986 1316.54 434.845 1316.4 434.661C1316.24 434.401 1315.73 434.282 1315.33 434.401C1314.79 434.564 1314.85 434.986 1315.12 435.268C1315.29 435.419 1315.4 435.571 1315.09 435.701C1314.86 435.798 1314.57 435.809 1314.33 435.863C1313.78 435.971 1313.96 436.426 1313.86 436.707C1313.77 436.913 1313.5 437.065 1313.4 437.27C1313.31 437.454 1313.37 437.66 1313.34 437.855C1313.32 438.039 1313.27 438.234 1313.25 438.418C1313.21 438.613 1313.13 438.775 1313.1 438.97C1313.07 439.068 1313.03 439.143 1313.12 439.23C1313.23 439.338 1313.34 439.349 1313.34 439.501C1313.34 439.652 1313.29 439.793 1313.3 439.945C1313.33 440.096 1313.34 440.334 1313.46 440.475C1313.55 440.475 1313.72 440.443 1313.78 440.497C1313.83 440.529 1313.83 440.659 1313.86 440.713C1313.89 440.908 1313.94 440.886 1314.22 440.973C1314.44 441.038 1314.48 441.135 1314.55 441.276C1314.62 441.449 1314.8 441.688 1314.64 441.85C1314.52 441.969 1314.29 442.056 1314.33 442.175C1314.06 442.229 1313.91 442.283 1313.91 442.348C1313.91 442.359 1313.91 442.38 1313.94 442.391H1313.91V442.716H1313.69C1313.69 442.716 1313.64 442.738 1313.64 442.759C1313.64 442.781 1313.67 442.792 1313.69 442.792H1313.91V442.954C1312.12 443.322 1310.85 444.297 1310.85 445.433C1310.85 445.552 1310.34 445.791 1310.34 445.791V446.256C1309.88 446.375 1309.63 446.494 1309.63 446.624C1309.63 446.743 1309.85 446.862 1310.26 446.971V447.501H1310.34V448.486H1308.12V451.29H1307.96V454.333H1308.88L1309.71 454.831L1308.79 514.082H1308.26V514.58H1308.24C1307.4 514.58 1306.72 515.003 1306.72 515.522C1306.72 515.793 1306.93 516.042 1307.23 516.215V516.453C1306.75 516.161 1306.35 516.551 1305.79 516.475C1305.79 516.41 1305.72 516.345 1305.73 516.269C1304.74 516.258 1305.26 516.919 1305.28 517.287C1305.34 517.287 1305.42 517.287 1305.47 517.265C1305.5 517.384 1305.47 517.514 1305.47 517.633C1305.47 517.774 1305.53 517.796 1305.6 517.936C1305.65 518.11 1305.6 518.023 1305.53 518.185C1305.49 518.315 1305.49 518.445 1305.42 518.564C1305.29 518.835 1305.1 519.106 1304.85 519.333C1304.66 519.495 1304.25 519.701 1304.2 519.928H1304V520.383H1304.61L1305.57 520.914H1305.35V526.857H1293.52V523.349L1294.39 523.079V522.776L1293.38 522.505V520.535H1293.11V520.015H1292.66V513.097H1292.81L1293.05 512.794H1292.66V507.825H1292.7L1292.94 507.522H1292.65V507.186H1293.05V506.98H1292.65V506.58H1293.18C1293.09 506.179 1293.45 505.93 1293.45 505.93H1293.24V505.789H1293.45V505.692H1292.65V505.324L1293.18 504.923V504.728L1292.65 504.566V504.382L1294.48 502.996L1294.54 502.671H1295.58V502.466L1292.76 499.467L1293.05 498.59L1291.86 497.691V494.942L1288.26 490.113C1288.3 489.962 1288.34 489.777 1288.34 489.593C1288.34 489.041 1288.14 488.597 1287.93 488.543H1287.91H1287.88C1287.88 488.543 1287.84 488.543 1287.84 488.554L1283.97 488.781H1280.64C1279.93 488.327 1278.87 488.024 1277.7 488.002L1272.83 483.238H1271.48V481.55H1271.83V481.344H1271.07V480.976H1270.61V480.813H1269.78V480.51H1269.23V481.355H1268.45V481.56H1268.8V483.249H1251.58V482.113H1251.93V481.907H1250.65V481.853H1251V481.647H1247.62V481.853H1247.97V483.238H1239.9V482.34H1240.25V482.004H1239.68V481.658C1239.83 481.636 1239.9 481.593 1239.9 481.56C1239.9 481.463 1239.27 481.366 1238.48 481.366C1237.69 481.366 1237.06 481.463 1237.06 481.56C1237.06 481.604 1237.15 481.636 1237.32 481.669V482.004H1236.69V481.56H1235.99V482.004H1234.91V481.019H1234.11V482.004H1233.81V481.56H1233.11V482.004H1231.44V481.127H1230.54V482.004H1230.18V481.366H1229.62V482.004H1229.18V481.019H1228.54V481.55H1227.27V481.225H1227.51V480.857H1226.76V479.406C1227.04 479.384 1227.26 479.298 1227.26 479.211C1227.26 479.092 1226.91 479.005 1226.51 479.005C1226.11 479.005 1225.79 479.092 1225.79 479.211C1225.79 479.298 1225.98 479.374 1226.26 479.406V480.857H1225.8V479.828H1225.08V479.016H1224.95C1225.04 478.94 1225.09 478.865 1225.09 478.767C1225.09 478.572 1224.85 478.41 1224.54 478.41C1224.3 478.41 1224.09 478.518 1224.02 478.67C1224.01 478.442 1223.73 478.269 1223.38 478.269C1223.08 478.269 1222.82 478.41 1222.76 478.616C1222.76 478.616 1222.74 478.616 1222.72 478.616C1222.39 478.616 1222.09 478.8 1222.09 479.027C1222.09 479.103 1222.14 479.168 1222.18 479.233H1221.08V479.85H1220.48V480.575H1219.4V480.792H1220.09V482.86L1218.54 483.238H1216.52L1216.49 468.461L1220.96 464.098V462.972H1222.6V462.279H1221.94V461.272L1222.76 460.742V460.265H1216.53V452.839L1218.56 450.154V449.786H1215.52L1215.2 449.266V448.508C1215.45 448.443 1215.61 448.281 1215.61 448.107C1215.61 447.934 1215.45 447.783 1215.21 447.718C1215.24 447.664 1215.27 447.599 1215.27 447.555C1215.27 447.317 1214.98 447.133 1214.61 447.133C1214.48 447.133 1214.37 447.155 1214.27 447.187C1214.17 447.046 1213.94 446.938 1213.69 446.949C1213.43 446.949 1213.23 447.046 1213.11 447.176C1213.02 447.144 1212.91 447.133 1212.8 447.133C1212.44 447.133 1212.14 447.317 1212.14 447.555C1212.14 447.599 1212.17 447.642 1212.19 447.674C1211.98 447.696 1211.8 447.794 1211.72 447.913H1210.66C1210.53 447.674 1210.26 447.512 1209.91 447.512C1209.57 447.512 1209.3 447.674 1209.16 447.913H1206.96C1206.85 447.674 1206.56 447.512 1206.22 447.512C1205.89 447.512 1205.58 447.674 1205.46 447.923H1204.57C1204.5 447.837 1204.38 447.761 1204.26 447.729C1204.28 447.674 1204.31 447.62 1204.31 447.555C1204.31 447.317 1204.01 447.122 1203.66 447.122C1203.53 447.122 1203.42 447.144 1203.32 447.187C1203.22 447.046 1202.99 446.938 1202.74 446.938C1202.49 446.938 1202.26 447.036 1202.16 447.176C1202.08 447.144 1201.96 447.122 1201.86 447.122C1201.49 447.122 1201.2 447.306 1201.2 447.555C1201.2 447.599 1201.23 447.642 1201.24 447.685C1201.03 447.707 1200.85 447.804 1200.78 447.923H1199.2C1199.06 447.685 1198.77 447.523 1198.44 447.523C1198.1 447.523 1197.81 447.685 1197.68 447.923H1195.73C1195.61 447.685 1195.33 447.523 1194.98 447.523C1194.64 447.523 1194.37 447.685 1194.24 447.923H1193.62C1193.54 447.837 1193.44 447.772 1193.31 447.729C1193.34 447.674 1193.35 447.62 1193.35 447.555C1193.35 447.317 1193.06 447.133 1192.7 447.133C1192.57 447.133 1192.45 447.155 1192.36 447.187C1192.27 447.046 1192.04 446.938 1191.77 446.938C1191.52 446.938 1191.31 447.036 1191.2 447.176C1191.11 447.144 1191 447.133 1190.9 447.133C1190.54 447.133 1190.24 447.328 1190.24 447.555C1190.24 447.599 1190.26 447.642 1190.28 447.685C1190.07 447.707 1189.91 447.794 1189.82 447.913H1188.45C1188.33 447.674 1188.03 447.512 1187.7 447.512C1187.36 447.512 1187.07 447.674 1186.94 447.913H1184.75C1184.62 447.685 1184.33 447.512 1184 447.512C1183.66 447.512 1183.38 447.674 1183.25 447.913H1182.68C1182.6 447.837 1182.49 447.772 1182.35 447.729C1182.38 447.685 1182.4 447.62 1182.4 447.566C1182.4 447.328 1182.11 447.133 1181.74 447.133C1181.63 447.133 1181.51 447.155 1181.41 447.198C1181.3 447.046 1181.08 446.949 1180.81 446.949C1180.56 446.949 1180.35 447.046 1180.24 447.187C1180.14 447.155 1180.04 447.133 1179.94 447.133C1179.57 447.133 1179.28 447.328 1179.28 447.566C1179.28 447.609 1179.3 447.653 1179.31 447.685C1179.1 447.718 1178.92 447.804 1178.84 447.923H1176.95C1176.82 447.685 1176.54 447.523 1176.18 447.523C1175.85 447.523 1175.56 447.685 1175.44 447.923H1173.49C1173.36 447.685 1173.09 447.523 1172.75 447.523C1172.4 447.523 1172.13 447.685 1171.99 447.923H1171.7C1171.62 447.837 1171.52 447.772 1171.38 447.729C1171.42 447.674 1171.44 447.62 1171.44 447.566C1171.44 447.328 1171.15 447.144 1170.78 447.144C1170.66 447.144 1170.54 447.166 1170.44 447.209C1170.33 447.068 1170.11 446.96 1169.86 446.96C1169.61 446.96 1169.38 447.057 1169.27 447.198C1169.19 447.166 1169.09 447.144 1168.97 447.144C1168.61 447.144 1168.33 447.328 1168.33 447.566C1168.33 447.609 1168.33 447.653 1168.35 447.696C1168.15 447.718 1167.97 447.804 1167.89 447.923H1166.78C1166.65 447.685 1166.36 447.523 1166.02 447.523C1165.68 447.523 1165.4 447.685 1165.27 447.923H1163.08C1162.95 447.685 1162.66 447.523 1162.32 447.523C1161.99 447.523 1161.69 447.685 1161.56 447.923H1160.73C1160.65 447.837 1160.56 447.772 1160.42 447.739C1160.44 447.685 1160.47 447.62 1160.47 447.566C1160.47 447.339 1160.18 447.144 1159.81 447.144C1159.7 447.144 1159.58 447.166 1159.47 447.209C1159.37 447.068 1159.14 446.96 1158.88 446.96C1158.63 446.96 1158.42 447.057 1158.31 447.198C1158.22 447.166 1158.12 447.155 1158 447.155C1157.63 447.155 1157.35 447.35 1157.35 447.577C1157.35 447.62 1157.37 447.674 1157.39 447.707C1157.18 447.729 1157.01 447.815 1156.92 447.945H1155.28C1155.16 447.707 1154.87 447.545 1154.54 447.545C1154.19 447.545 1153.9 447.707 1153.78 447.945H1151.83C1151.7 447.707 1151.43 447.545 1151.08 447.545C1150.74 447.545 1150.46 447.707 1150.34 447.945H1149.77C1149.7 447.858 1149.6 447.793 1149.46 447.761C1149.49 447.707 1149.53 447.653 1149.53 447.599C1149.53 447.36 1149.22 447.166 1148.85 447.166C1148.74 447.166 1148.62 447.187 1148.51 447.241C1148.41 447.101 1148.18 446.992 1147.92 446.992C1147.66 446.992 1147.47 447.09 1147.35 447.231C1147.25 447.198 1147.17 447.176 1147.06 447.176C1146.69 447.176 1146.39 447.371 1146.39 447.609C1146.39 447.653 1146.41 447.696 1146.43 447.739C1146.22 447.761 1146.05 447.858 1145.96 447.978H1144.95C1144.83 447.739 1144.55 447.577 1144.2 447.577C1143.85 447.577 1143.57 447.739 1143.45 447.978H1141.27C1141.14 447.739 1140.84 447.577 1140.51 447.577C1140.17 447.577 1139.89 447.729 1139.76 447.978H1138.83C1138.75 447.891 1138.65 447.826 1138.52 447.783C1138.55 447.739 1138.56 447.674 1138.56 447.62C1138.56 447.393 1138.28 447.198 1137.92 447.198C1137.79 447.198 1137.68 447.231 1137.57 447.263C1137.48 447.122 1137.24 447.025 1136.99 447.025C1136.73 447.025 1136.5 447.111 1136.4 447.252C1136.33 447.22 1136.21 447.209 1136.1 447.209C1135.74 447.209 1135.45 447.404 1135.45 447.631C1135.45 447.674 1135.45 447.718 1135.48 447.761C1135.28 447.783 1135.09 447.869 1135.02 447.988H1133.48C1133.36 447.75 1133.07 447.588 1132.72 447.588C1132.38 447.588 1132.1 447.75 1131.98 447.988H1130.03C1129.9 447.75 1129.63 447.588 1129.27 447.588C1128.94 447.588 1128.64 447.75 1128.53 447.988H1127.88C1127.81 447.902 1127.7 447.837 1127.56 447.793C1127.6 447.739 1127.61 447.685 1127.61 447.631C1127.61 447.393 1127.32 447.198 1126.96 447.198C1126.83 447.198 1126.71 447.22 1126.62 447.263C1126.52 447.111 1126.29 447.014 1126.02 447.014C1125.77 447.014 1125.57 447.111 1125.45 447.252C1125.36 447.22 1125.25 447.198 1125.14 447.198C1124.79 447.198 1124.5 447.393 1124.5 447.631C1124.5 447.664 1124.51 447.718 1124.53 447.761C1124.32 447.783 1124.15 447.869 1124.05 447.988H1123.22C1123.1 447.75 1122.82 447.588 1122.46 447.588C1122.12 447.588 1121.83 447.75 1121.72 447.988H1119.53C1119.4 447.75 1119.11 447.588 1118.78 447.588C1118.44 447.588 1118.16 447.75 1118.02 447.999H1116.91C1116.85 447.913 1116.73 447.848 1116.6 447.804C1116.64 447.75 1116.66 447.696 1116.66 447.642C1116.66 447.404 1116.35 447.22 1116 447.22C1115.88 447.22 1115.76 447.241 1115.65 447.285C1115.55 447.144 1115.33 447.036 1115.07 447.036C1114.82 447.036 1114.6 447.122 1114.49 447.274C1114.39 447.241 1114.3 447.22 1114.19 447.22C1113.82 447.22 1113.53 447.404 1113.53 447.642C1113.53 447.685 1113.53 447.729 1113.55 447.772C1113.34 447.794 1113.17 447.891 1113.1 448.01H1111.81C1111.69 447.772 1111.4 447.609 1111.06 447.609C1111.04 447.609 1111.03 447.609 1111.02 447.609C1111.02 447.609 1111 447.609 1110.97 447.609C1110.64 447.609 1110.36 447.772 1110.23 448.01H1108.29C1108.17 447.772 1107.89 447.609 1107.53 447.609C1107.51 447.609 1107.48 447.609 1107.44 447.609C1107.42 447.609 1107.39 447.609 1107.37 447.609C1107.03 447.609 1106.74 447.772 1106.61 448.021H1105.94C1105.87 447.934 1105.78 447.858 1105.64 447.826C1105.67 447.772 1105.69 447.707 1105.69 447.653C1105.69 447.415 1105.4 447.231 1105.04 447.231C1104.91 447.231 1104.79 447.252 1104.69 447.295C1104.59 447.155 1104.36 447.046 1104.11 447.046C1103.86 447.046 1103.64 447.144 1103.52 447.285C1103.44 447.252 1103.33 447.241 1103.22 447.241C1102.86 447.241 1102.58 447.436 1102.58 447.664C1102.58 447.707 1102.58 447.75 1102.6 447.793C1102.41 447.815 1102.23 447.902 1102.14 448.032H1100.33C1100.21 447.793 1099.93 447.631 1099.58 447.631C1099.24 447.631 1098.97 447.804 1098.84 448.032H1096.89C1096.76 447.793 1096.47 447.631 1096.13 447.631C1095.8 447.631 1095.51 447.804 1095.37 448.042H1094.67C1094.59 447.956 1094.49 447.891 1094.36 447.848C1094.39 447.794 1094.4 447.739 1094.4 447.674C1094.4 447.436 1094.11 447.241 1093.76 447.241C1093.62 447.241 1093.51 447.263 1093.41 447.317C1093.32 447.166 1093.08 447.068 1092.84 447.068C1092.57 447.068 1092.35 447.166 1092.25 447.306C1092.16 447.274 1092.05 447.252 1091.94 447.252C1091.58 447.252 1091.29 447.436 1091.29 447.674C1091.29 447.718 1091.29 447.761 1091.33 447.793C1091.03 447.837 1090.8 447.999 1090.8 448.205C1090.8 448.411 1091.02 448.605 1091.33 448.638V449.255H1090.65L1090.24 449.905H1087.2V450.273L1089.26 452.947V460.384H1083.03V460.872L1083.85 461.413V462.431H1083.2V463.123H1084.84V464.238L1089.33 468.601L1089.35 490.546H1087.18V490.979L1087.76 491.347V491.889L1089.36 492.733L1089.4 526.944H1087.62V521.249L1070.36 518.532V520.979L1060.14 522.852V526.955H1057.91V521.455C1058.02 521.455 1058.18 521.455 1058.26 521.455C1058.48 521.477 1058.61 521.477 1058.77 521.552C1058.89 521.596 1058.98 521.736 1059.19 521.65C1059.46 521.531 1059.19 521.152 1058.98 521.087C1058.69 521.011 1058.22 521.119 1057.91 521.065V520.502L1058.54 519.679L1057.65 518.434V518.131H1058.54C1058.64 518.175 1058.74 518.207 1058.81 518.229C1059.12 518.359 1059.27 518.315 1059.54 518.185C1059.74 518.099 1059.93 517.871 1060.16 517.85C1060.54 517.806 1060.67 518.337 1061.02 518.066C1061.17 517.958 1061.1 517.774 1061.04 517.666C1060.98 517.493 1060.91 517.449 1060.64 517.449C1060.39 517.449 1060.24 517.525 1060.05 517.428C1059.86 517.33 1059.85 517.222 1059.61 517.2C1059.46 517.189 1059.13 517.233 1058.99 517.265C1058.82 517.319 1058.77 517.395 1058.6 517.417H1057.05V517.092L1057.62 516.031H1057.75V515.62H1057.06V514.44H1057.2V514.234H1057.36V513.779H1055.18V509.135H1055.46V508.777H1055.18V505.66H1055.51V505.064H1055.18V496.75H1055.55V493.826H1055.76V491.142H1052.93V493.177H1051.02V491.813H1049.35V493.177H1046.99V492.408H1047.2V491.997L1046.32 491.661L1045.44 491.997V492.408H1045.62V492.982C1044.96 492.863 1043.73 492.657 1043.73 492.657L1042.95 493.015H1042.48V492.69H1042.08V493.015H1041.35V492.332H1040.6V492.062H1040.85V491.91H1040.6V491.445H1041.13V491.163H1040.58V490.882H1040.87V490.676H1040.58V490.557L1040.13 489.875L1039.67 490.46V486.919L1040.44 485.046L1039.77 484.213V483.834L1040.04 483.801V483L1039.67 482.87L1039.72 482.675L1039.82 482.459L1039.67 482.297H1039.28L1039.17 482.037L1038.7 482.004L1038.48 482.113L1038.34 483.076H1038.24L1038.33 483.358L1037.96 483.293L1037.36 480.705C1038.64 475.758 1031.03 467.735 1025.94 465.83L1025.91 465.862V465.191C1025.91 465.191 1025.84 465.148 1025.8 465.115C1025.67 465.05 1025.52 464.996 1025.36 464.953V463.773C1025.6 463.665 1025.74 463.535 1025.74 463.394C1025.74 463.253 1025.6 463.134 1025.36 463.026V462.355H1024.96V458.76C1025.12 458.717 1025.27 458.674 1025.37 458.631V456.801C1025.7 456.693 1025.88 456.574 1025.88 456.454C1025.88 456.335 1025.67 456.195 1025.32 456.097V454.917C1025.26 454.452 1025.39 453.055 1023.01 451.42L1022.99 451.485V451.041C1022.99 450.911 1022.65 450.825 1022.19 450.792V450.37L1022.55 450.446L1022.67 450.197L1022.19 450.099V449.407H1023.09V449.125H1022.19V448.454H1022.52V448.237H1022.19V447.534H1021.56V448.237H1021.23V448.454H1021.56V449.125H1020.66V449.407H1021.56V449.97L1021.19 449.894L1021.08 450.132L1021.56 450.229V450.771C1021.05 450.803 1020.67 450.901 1020.67 451.02V451.388C1018.31 453.012 1018.45 454.408 1018.39 454.863V456.086C1018.02 456.195 1017.82 456.325 1017.82 456.454C1017.82 456.584 1018 456.693 1018.31 456.79V458.62C1018.42 458.663 1018.57 458.717 1018.72 458.75V462.355H1018.45V463.026C1018.21 463.134 1018.07 463.264 1018.07 463.394C1018.07 463.524 1018.21 463.654 1018.45 463.773V464.953C1018.29 465.007 1018.14 465.061 1018.01 465.115C1017.98 465.137 1017.93 465.159 1017.89 465.191V465.971C1014.62 467.335 1010.44 471.059 1008.2 474.837V472.445H1008.59V471.286C1009.69 470.637 1010.53 469.803 1010.98 468.85H1011V467.01L1010.32 465.429C1010.08 464.704 1009.23 464.119 1008.07 463.816V463.535H1008.55V462.409L1008.07 462.095V459.183C1008.54 458.869 1008.82 458.468 1008.82 458.024C1008.82 457.645 1008.62 457.299 1008.27 457.007V455.123C1008.27 454.506 1007.83 453.954 1007.11 453.499C1006.84 453.337 1006.53 453.185 1006.19 453.033C1005.73 447.75 1002.17 435.798 986.158 428.068C986.104 427.527 985.758 427.094 985.249 426.91C985.249 426.91 985.216 426.098 984.794 426.098C984.794 426.098 984.762 425.686 984.383 425.795C984.383 425.795 984.264 425.307 983.798 425.329C983.841 424.701 983.462 424.972 983.462 424.788C983.462 424.604 983.311 423.922 982.824 423.868V421.724C983.062 421.594 983.213 421.464 983.213 421.302V420.76C983.213 420.641 983.127 420.522 982.943 420.414C982.867 420.338 982.737 420.262 982.564 420.176V418.888H982.521V418.866H982.077V412.976H982.521V412.554H982.65V411.98C983.018 411.883 983.235 411.764 983.235 411.645V410.833C983.235 410.606 983.018 410.389 982.65 410.194C982.596 407.39 980.897 404.597 979.478 403.568V402.518H978.634V402.215H978.385V401.739H978.742V401.49H978.385V401.208H978.169C978.136 400.786 977.995 400.407 977.789 400.234V397.809H979.857V397.365H977.789V395.958H977.194V397.365H975.126V397.809H977.194V400.234C976.988 400.418 976.859 400.786 976.815 401.208H976.609V401.49H976.252V401.739H976.609V402.215H976.36V402.518H975.505V403.568C974.087 404.597 972.387 407.39 972.322 410.194C971.965 410.389 971.759 410.595 971.759 410.833V411.645C971.759 411.764 971.976 411.883 972.376 411.991C972.398 412.002 972.441 412.013 972.463 412.013V412.976H972.929V418.866H972.463V420.024C971.889 420.208 971.554 420.425 971.554 420.652V421.194C971.554 421.323 971.64 421.443 971.824 421.551C971.846 421.594 971.911 421.627 971.954 421.67H971.933V423.759C971.445 423.824 971.294 424.496 971.294 424.68C971.294 424.864 970.915 424.593 970.958 425.221C970.493 425.199 970.384 425.686 970.384 425.686C970.005 425.567 969.951 425.99 969.951 425.99C969.551 425.99 969.497 426.802 969.497 426.802C968.999 426.986 968.641 427.408 968.587 427.96C952.684 435.636 949.068 447.501 948.58 452.828C947.855 453.033 947.227 453.293 946.74 453.596C946.004 454.062 945.571 454.614 945.56 455.209V457.104C945.224 457.396 945.008 457.743 945.008 458.122C945.008 458.566 945.3 458.966 945.755 459.291V462.192L945.289 462.506V463.621H945.755V463.903C944.607 464.217 943.741 464.801 943.503 465.527L942.821 467.107V468.937H942.853C943.286 469.901 944.142 470.734 945.235 471.384V472.531H945.625V474.935C943.406 471.156 939.205 467.432 935.946 466.068V465.289C935.946 465.289 935.86 465.245 935.816 465.224C935.687 465.159 935.557 465.105 935.372 465.061V463.892C935.622 463.784 935.762 463.654 935.762 463.513C935.762 463.372 935.622 463.253 935.372 463.145V462.485H935.113V458.88C935.264 458.847 935.416 458.793 935.513 458.76V456.942C935.827 456.844 936.011 456.725 936.011 456.595C936.011 456.465 935.805 456.335 935.437 456.227V455.015C935.372 454.549 935.524 453.152 933.164 451.529V451.16C933.164 451.031 932.785 450.922 932.276 450.901V450.359L932.763 450.262L932.644 450.024L932.276 450.099V449.547H933.164V449.266H932.276V448.595H932.612V448.378H932.276V447.674H931.648V448.378H931.324V448.595H931.648V449.266H930.761V449.547H931.648V450.24L931.172 450.338L931.28 450.576L931.648 450.5V450.922C931.183 450.955 930.858 451.052 930.858 451.171V451.615L930.825 451.561C928.444 453.207 928.584 454.592 928.53 455.058V456.249C928.173 456.346 927.967 456.476 927.967 456.606C927.967 456.736 928.13 456.855 928.455 456.952V458.793C928.552 458.847 928.714 458.88 928.877 458.912V462.517H928.476V463.178C928.227 463.286 928.086 463.416 928.086 463.546C928.086 463.676 928.227 463.805 928.476 463.925V465.094C928.303 465.148 928.151 465.202 928.043 465.256C927.989 465.278 927.946 465.299 927.913 465.321V465.992L927.881 465.96C922.803 467.865 915.193 475.887 916.459 480.835L915.864 483.433L915.496 483.487L915.582 483.217H915.452L915.333 482.242L915.106 482.145L914.63 482.177L914.532 482.448H914.132L913.969 482.611L914.077 482.827L914.132 483.033L913.742 483.152V483.942L914.012 483.985V484.354L913.363 485.187L914.132 487.06V490.6L913.677 490.016L913.222 490.709V490.838H912.93V491.044H913.222V491.326H912.692V491.618H913.211V492.083H912.962V492.235H913.211V492.506H912.464V493.177H911.728V492.852H911.338V493.177H910.862L910.083 492.82C910.083 492.82 909.011 493.004 908.329 493.123V492.571H908.372V492.17H908.329V489.106L908.112 489.074L907.755 481.842L907.614 481.582L907.246 472.596L907.809 472.336L907.777 472.12L907.268 471.698C907.268 471.698 906.434 469.251 906.434 469.197C906.434 469.024 906.683 468.991 906.651 468.861C906.651 468.829 906.477 468.807 906.434 468.753C906.402 468.721 906.402 468.569 906.402 468.536C906.402 468.472 906.51 468.374 906.499 468.331C906.477 468.19 906.369 468.287 906.283 468.201C906.185 468.103 906.228 467.919 906.131 467.789C905.914 467.789 906.055 468.017 905.969 468.103C905.849 468.255 905.774 468.125 905.59 468.19C905.73 468.352 905.893 468.396 905.925 468.601C905.947 468.656 906.033 468.753 905.925 468.818C905.828 468.883 905.73 468.796 905.611 468.85C905.665 468.894 905.687 468.948 905.752 468.991C905.73 469.035 905.752 469.034 905.752 469.078L905.839 469.132H904.518V463.838L904.929 463.556L903.251 462.019V456.812C903.251 456.519 903.76 456.335 903.933 456.086C903.955 456.032 903.998 455.935 904.074 455.891C904.171 455.837 904.301 455.913 904.399 455.827C904.604 455.675 904.236 455.502 904.182 455.361C904.139 455.22 904.182 455.08 904.182 454.95L903.37 454.408V453.152H903.154V445.91C903.392 446.04 903.175 446.31 903.641 446.256C903.792 445.953 903.641 445.791 903.349 445.574C903.013 445.314 903.23 445.13 903.294 444.86C903.294 444.784 903.154 444.524 903.175 444.492C903.219 444.437 903.565 444.427 903.684 444.329C903.771 444.253 903.836 444.015 903.955 443.972C904.063 443.939 904.897 444.134 904.918 444.091C904.864 444.178 904.918 444.318 905.059 444.34C905.222 444.362 905.297 444.253 905.373 444.178C905.492 444.048 905.546 443.939 905.373 443.809C905.146 443.647 903.392 443.495 903.403 443.68C903.403 443.539 903.154 443.528 903.089 443.398C903.035 443.301 903.154 443.095 903.197 442.997C903.284 442.835 903.414 442.759 903.641 442.673C903.803 442.597 904.106 442.435 903.847 442.272C903.706 442.207 903.262 442.24 903.132 442.315C902.916 442.186 903.132 441.309 903.479 441.374C903.5 441.449 903.479 441.601 903.576 441.655C903.706 441.709 903.868 441.612 903.922 441.514C904.009 441.374 903.793 441.081 903.576 441.016C903.641 440.843 903.76 440.692 903.803 440.529C904.161 440.475 904.009 440.691 904.301 440.724C904.572 440.746 904.561 440.529 904.767 440.486C905.092 440.388 905.362 440.908 905.655 440.756C905.969 440.605 905.297 440.237 905.124 440.161C904.929 440.085 904.713 440.042 904.496 440.042C904.15 440.053 903.977 440.096 904.215 439.858C904.334 439.728 904.485 439.598 904.615 439.479L904.68 439.349C904.68 439.349 904.453 439.013 904.106 438.797C904.02 438.732 904.171 438.656 904.161 438.57C904.085 438.58 903.987 438.591 903.89 438.591C903.944 438.472 904.312 438.093 904.496 438.05C904.691 438.007 904.864 438.169 905.005 438.028C905.092 437.942 904.951 437.768 904.929 437.682C904.799 437.693 904.594 437.714 904.474 437.758C904.323 437.812 904.215 437.942 904.031 437.942C904.085 437.833 904.171 437.66 904.236 437.541C904.366 437.335 904.507 437.444 904.734 437.357C905.005 437.26 904.853 437.097 904.615 437.065C904.388 437.032 904.106 437.173 903.922 437.13C903.944 437.054 904.074 437.065 904.096 437.011C904.15 436.956 904.139 436.902 904.171 436.848C904.225 436.751 904.301 436.664 904.366 436.556C904.507 436.339 904.799 436.231 904.702 436.004C904.637 435.874 904.615 435.787 904.366 435.809C904.15 435.82 904.193 435.885 904.031 435.95C903.933 436.004 903.695 435.982 903.619 436.036C903.511 436.112 903.5 436.274 903.489 436.361C903.414 436.361 903.338 436.383 903.273 436.361C903.273 436.502 903.186 436.632 903.186 436.762C903.186 436.87 903.349 437.021 903.046 437.032H903.1L900.177 437.021C900.177 437.021 900.09 437.086 900.036 436.967C900.036 436.859 900.057 436.621 900.317 436.772C900.577 436.632 900.501 436.339 900.122 436.339C900.112 436.274 899.971 436.188 900.003 436.123C900.047 436.036 900.187 436.09 900.263 436.047C900.425 435.971 900.501 435.885 900.436 435.733C900.317 435.473 899.928 435.289 899.787 435.04C899.754 434.986 899.668 434.9 899.787 434.845C899.917 434.77 899.971 434.867 900.09 434.878C900.361 434.889 900.512 434.748 900.458 434.586C900.382 434.304 899.7 434.423 899.57 434.109C899.538 434.023 899.57 433.925 899.57 433.839V415.661L899.83 415.607L899.971 415.499L900.047 415.369L900.328 415.228L900.361 415.066L899.852 415.012C899.852 415.012 900.079 414.665 899.689 414.557C899.668 414.47 899.603 414.254 899.743 414.189C899.798 414.167 899.938 414.221 900.014 414.2C900.09 414.189 900.122 414.113 900.198 414.081C900.469 413.929 900.718 413.767 901.032 413.713C901.075 413.702 901.053 413.648 901.118 413.648C901.162 413.648 901.194 413.691 901.227 413.68C901.346 413.669 901.367 413.745 901.465 413.648C901.573 413.55 901.465 413.377 901.443 413.28C901.443 413.193 901.432 412.955 901.237 412.933C901.14 412.933 900.956 413.074 900.848 413.096C900.35 413.225 900.382 412.825 900.209 412.598C900.112 412.489 899.992 412.305 899.873 412.197C899.743 412.089 899.57 412.089 899.527 411.959C899.473 411.84 899.494 411.623 899.527 411.504C899.527 411.363 899.657 411.201 899.624 411.082C899.603 410.984 899.44 410.865 899.375 410.779C899.3 410.649 899.278 410.519 899.007 410.519C899.083 410.259 899.181 410.053 899.375 409.826C899.581 409.577 899.365 409.566 899.116 409.447C898.942 409.361 898.986 409.425 898.986 409.252C898.986 409.133 899.007 409.025 898.953 408.917C898.877 408.733 898.737 408.743 898.477 408.722C898.228 408.7 898.011 408.765 897.881 408.624C897.773 408.516 897.849 408.343 897.773 408.202C897.708 408.061 897.622 407.888 897.405 408.061C897.243 408.18 897.362 408.386 897.275 408.516C897.178 408.722 896.604 408.982 896.42 408.646C896.29 408.419 896.604 408.473 896.647 408.354C896.669 408.256 896.355 408.191 896.615 408.051C896.755 407.975 896.961 408.029 897.048 407.866C897.113 407.726 896.994 407.585 896.799 407.531C896.647 407.672 896.344 407.628 896.268 407.477C896.16 407.239 896.593 407.206 896.712 407.055C896.896 406.806 896.333 406.935 896.257 406.773C896.236 406.708 896.301 406.676 896.42 406.676C896.517 406.676 896.766 406.557 896.994 406.275L897.383 406.329C897.383 406.329 897.383 406.286 897.383 406.243C897.34 406.134 897.167 405.983 896.463 406.243C895.954 406.513 896.344 406.156 896.409 406.08C896.463 406.037 897.015 405.16 897.015 405.16L895.478 403.2V402.821L895.575 402.637L895.792 402.248L894.33 401.533C894.33 401.533 892.468 401.425 892.263 401.457V400.288L889.848 397.257V397.008L890 396.856V396.759L889.708 396.661V396.347L889.892 396.066L889.502 396.109L889.329 395.871L889.274 396.153L888.939 396.185L889.166 396.423V396.813L889.026 396.921L889.166 397.029V397.354L887.109 400.494V401.793H863.649L863.432 401.609H860.823L859.416 402.085L859.308 403.06L859.589 403.2L859.838 403.753L858.16 405.073V405.82L857.77 405.918V406.264L858.409 406.362L858.431 406.567H857.77L855.746 406.762C855.746 406.762 855.399 407.325 856.19 407.152C856.19 407.152 857.445 406.676 857.77 407.466L857.597 407.553L857.381 408.213H856.655L856.753 408.451L857.218 408.635L857.272 409.371L857.045 409.577L856.85 409.761L857.11 409.923V410.551L856.601 410.432L856.265 409.999L855.897 409.772L855.843 409.057L856.46 408.722L855.843 408.581L855.443 407.975L855.161 408.657L854.468 408.743L855.161 409.133L855.064 410.01L854.685 409.988L854.793 410.411L854.771 411.742L854.707 411.818L854.566 411.97L854.479 412.186L854.393 412.338L854.208 412.392L853.721 412.478L853.754 412.901L854.219 413.085L854.533 413.323L854.674 413.648C854.674 413.648 853.895 413.832 853.721 414.373L853.093 414.525L853.267 414.925L854.338 414.709L855.075 415.153V436.545H842.126L842.105 436.329C842.105 436.329 842.148 436.307 842.17 436.296C842.245 436.231 842.246 436.134 842.375 436.09C842.516 436.058 842.592 436.134 842.7 436.144C843.068 436.188 843.068 435.917 842.765 435.874C842.549 435.841 842.235 435.895 842.083 436.015L842.007 434.986H842.018C842.094 434.943 842.105 434.759 842.148 434.694C842.235 434.564 842.256 434.564 842.43 434.64C842.754 434.748 842.895 434.499 842.592 434.423C842.43 434.391 842.148 434.401 841.953 434.466L841.867 433.319C841.932 433.286 841.921 433.221 841.964 433.178C842.04 433.081 842.094 433.092 842.246 433.092C842.603 433.092 842.451 432.875 842.213 432.81C842.083 432.778 841.953 432.788 841.823 432.81L841.737 431.825C841.737 431.825 841.791 431.814 841.834 431.792C841.91 431.727 841.856 431.641 841.975 431.576C842.051 431.533 842.137 431.543 842.246 431.533C842.505 431.489 842.635 431.284 842.332 431.197C842.235 431.175 841.91 431.175 841.704 431.229L841.618 430.233C841.618 430.233 841.672 430.223 841.704 430.201C841.78 430.158 841.758 430.071 841.823 430.028C841.91 429.952 841.997 429.963 842.094 429.93C842.278 429.844 842.191 429.638 842.007 429.595C841.899 429.562 841.715 429.595 841.564 429.627L841.477 428.577C841.553 428.577 841.65 428.577 841.672 428.534C841.726 428.469 841.607 428.393 841.737 428.328C841.823 428.274 841.975 428.339 842.029 428.252C842.072 428.198 841.997 428.101 841.932 428.057C841.791 428.003 841.596 428.047 841.444 428.09L841.369 426.986C841.444 426.986 841.499 426.975 841.531 426.921C841.553 426.856 841.477 426.802 841.607 426.737C841.737 426.693 841.823 426.737 841.856 426.628C841.878 426.563 841.856 426.488 841.78 426.433C841.693 426.379 841.488 426.39 841.315 426.433L841.239 425.351L841.315 425.329C841.434 425.275 841.379 425.21 841.488 425.167C841.574 425.134 841.737 425.156 841.769 425.069C841.845 424.896 841.314 424.885 841.25 424.994L841.228 424.972C841.228 424.972 841.206 424.972 841.185 424.961L841.076 423.51C841.076 423.51 841.098 423.51 841.12 423.51C841.185 423.521 841.185 423.597 841.25 423.619C841.347 423.64 841.455 423.597 841.531 423.543C841.596 423.5 841.596 423.413 841.498 423.359C841.401 423.294 841.325 423.326 841.206 423.326C841.163 423.326 841.109 423.326 841.065 423.337L840.849 420.609C840.903 420.587 840.968 420.576 841.022 420.533C841.228 420.403 841.379 420.122 841.271 419.938C841.217 419.851 840.979 419.656 840.773 419.667L840.632 418.13H840.611C840.697 418.097 840.752 418.011 840.719 417.935C840.697 417.87 840.676 417.567 840.503 417.578V417.556V415.618H841.661V415.542H840.503V413.972H840.481C840.513 413.886 840.622 413.799 840.676 413.723C840.784 413.723 840.838 413.648 840.827 413.594C840.827 413.496 840.751 413.485 840.816 413.399C840.903 413.236 840.708 413.106 840.567 413.301C840.513 413.42 840.513 413.658 840.264 413.518C840.167 413.453 840.102 413.42 839.961 413.464C839.81 413.507 839.864 413.561 839.842 413.658C839.821 413.723 839.777 413.745 839.81 413.821C839.842 413.907 839.885 413.908 839.983 413.908C840.102 413.908 840.134 413.908 840.232 413.962C840.297 413.983 840.34 413.983 840.394 413.994V415.564H839.301V415.64H840.394V417.578C840.188 417.588 840.178 417.74 840.134 417.87C840.08 418 840.037 418.173 840.253 418.206L840.145 419.667C839.94 419.689 839.777 419.754 839.691 419.862C839.517 420.057 839.539 420.317 839.788 420.447C839.885 420.511 839.983 420.533 840.07 420.555L839.864 423.337C839.788 423.337 839.723 423.337 839.68 423.359C839.517 423.402 839.323 423.575 839.431 423.684C839.507 423.759 839.539 423.716 839.604 423.662C839.68 423.575 839.658 423.543 839.842 423.543L839.723 424.874C839.615 424.874 839.496 424.896 839.431 424.95C839.312 425.037 839.301 425.221 839.377 425.329C839.431 425.329 839.517 425.34 839.561 425.318C839.615 425.297 839.561 425.243 839.647 425.221H839.712L839.626 426.336C839.517 426.314 839.42 426.336 839.355 426.423C839.301 426.498 839.279 426.563 839.203 426.628C839.171 426.661 839.052 426.747 839.106 426.791C839.203 426.964 839.517 426.607 839.507 426.888C839.539 426.888 839.55 426.899 839.572 426.91L839.485 427.949C839.485 427.949 839.398 427.927 839.377 427.938C839.268 427.938 839.128 427.992 839.052 428.047C838.965 428.133 838.835 428.404 839.073 428.469C839.322 428.534 839.214 428.166 839.474 428.176L839.344 429.681C839.344 429.681 839.268 429.66 839.247 429.66C839.128 429.66 839.052 429.681 838.954 429.703C838.879 429.725 838.749 429.725 838.716 429.779C838.684 429.844 838.77 429.984 838.857 430.017C839.095 430.104 839.073 429.811 839.312 429.854C839.322 429.865 839.333 429.865 839.333 429.865L839.214 431.327C839.095 431.316 838.954 431.294 838.814 431.294C838.695 431.294 838.64 431.294 838.619 431.381C838.586 431.435 838.619 431.554 838.705 431.576C838.889 431.641 839.008 431.424 839.182 431.468L839.073 432.983C838.933 432.951 838.77 432.929 838.673 432.929C838.532 432.907 838.467 432.907 838.424 433.005C838.402 433.048 838.424 433.167 838.51 433.2C838.749 433.286 838.868 432.972 839.03 433.221C839.03 433.232 839.03 433.243 839.063 433.254L838.954 434.445C838.835 434.402 838.695 434.38 838.565 434.391C838.337 434.412 838.197 434.618 838.478 434.65C838.565 434.661 838.695 434.65 838.781 434.694C838.846 434.737 838.868 434.813 838.922 434.867L838.835 436.047C838.835 436.047 838.803 436.036 838.781 436.036C838.684 436.015 838.5 435.971 838.391 435.96C838.197 435.96 837.926 436.166 838.088 436.285C838.272 436.415 838.467 436.08 838.695 436.177C838.738 436.199 838.781 436.242 838.814 436.285L838.792 436.567H825.844V415.174L826.569 414.73L827.641 414.947L827.814 414.546L827.186 414.406C827.024 413.843 826.234 413.669 826.234 413.669L826.374 413.345L826.688 413.106L827.154 412.922L827.186 412.5L826.721 412.413L826.526 412.359L826.429 412.219L826.353 411.991L826.201 411.851L826.158 411.775L826.125 410.432L826.244 410.01L825.876 410.032L825.768 409.144L826.461 408.754L825.768 408.668L825.497 407.996L825.097 408.592L824.48 408.754L825.097 409.079L825.043 409.794L824.675 410.01L824.339 410.454L823.83 410.562V409.934L824.079 409.783L823.884 409.588L823.668 409.382L823.722 408.657L824.166 408.473L824.285 408.235H823.549L823.321 407.574L823.159 407.477C823.473 406.686 824.74 407.163 824.74 407.163C825.519 407.347 825.183 406.784 825.183 406.784L823.159 406.6L822.477 406.578L822.509 406.383L823.148 406.297V405.95L822.758 405.853V405.095L821.08 403.774L821.329 403.222L821.611 403.081L821.492 402.118L820.095 401.641H817.475L817.248 401.825H793.809V400.526L791.763 397.398V397.073L791.904 396.954L791.763 396.845V396.466L791.979 396.228L791.633 396.185L791.59 395.914L791.427 396.153L791.016 396.098L791.211 396.391V396.705L790.929 396.791V396.9L791.081 397.04V397.3L788.667 400.331V401.501C788.472 401.468 786.621 401.566 786.621 401.566L785.159 402.291L785.365 402.67L785.462 402.854V403.233L783.925 405.203C783.925 405.203 784.477 406.08 784.531 406.134C784.596 406.188 784.986 406.557 784.477 406.275C783.773 406.026 783.6 406.167 783.557 406.275C783.557 406.318 783.557 406.372 783.557 406.372L783.947 406.307C784.174 406.589 784.423 406.719 784.52 406.719C784.639 406.719 784.715 406.741 784.683 406.816C784.607 406.968 784.044 406.827 784.239 407.076C784.347 407.228 784.769 407.26 784.683 407.498C784.607 407.65 784.293 407.682 784.152 407.553C783.968 407.617 783.838 407.758 783.892 407.888C783.979 408.051 784.195 407.996 784.336 408.072C784.607 408.213 784.282 408.278 784.315 408.375C784.358 408.494 784.683 408.44 784.542 408.668C784.358 409.003 783.784 408.743 783.687 408.549C783.611 408.419 783.719 408.202 783.568 408.083C783.351 407.921 783.264 408.083 783.189 408.224C783.113 408.365 783.189 408.527 783.08 408.646C782.961 408.787 782.734 408.722 782.496 408.743C782.225 408.743 782.095 408.743 782.009 408.927C781.965 409.036 781.987 409.144 781.987 409.263C781.987 409.425 782.03 409.382 781.846 409.469C781.608 409.588 781.402 409.599 781.597 409.848C781.781 410.064 781.889 410.281 781.965 410.541C781.695 410.541 781.684 410.681 781.597 410.8C781.543 410.887 781.37 411.006 781.348 411.114C781.316 411.233 781.446 411.407 781.456 411.537C781.456 411.666 781.511 411.872 781.456 412.002C781.391 412.132 781.229 412.143 781.088 412.251C780.98 412.349 780.85 412.522 780.753 412.641C780.558 412.868 780.623 413.269 780.103 413.139C780.006 413.117 779.833 412.976 779.703 412.976C779.529 412.998 779.529 413.236 779.518 413.323C779.486 413.41 779.378 413.604 779.486 413.68C779.594 413.767 779.616 413.702 779.746 413.723C779.789 413.723 779.8 413.68 779.854 413.691C779.898 413.691 779.897 413.734 779.93 413.745C780.255 413.81 780.504 413.972 780.774 414.113C780.839 414.146 780.883 414.211 780.958 414.232C781.045 414.254 781.175 414.2 781.229 414.211C781.381 414.276 781.316 414.503 781.294 414.579C780.904 414.687 781.132 415.033 781.132 415.033L780.612 415.098L780.634 415.261L780.926 415.412L781.002 415.542L781.142 415.651L781.391 415.705V433.882C781.391 433.968 781.424 434.077 781.391 434.163C781.272 434.466 780.58 434.347 780.493 434.629C780.45 434.791 780.59 434.932 780.872 434.921C780.991 434.921 781.045 434.813 781.164 434.889C781.294 434.964 781.197 435.04 781.164 435.094C781.023 435.333 780.623 435.527 780.515 435.787C780.45 435.95 780.525 436.025 780.688 436.101C780.764 436.134 780.893 436.08 780.948 436.177C780.98 436.242 780.829 436.329 780.829 436.404C780.439 436.394 780.374 436.697 780.623 436.837C780.904 436.686 780.915 436.924 780.915 437.032C780.85 437.162 780.764 437.076 780.764 437.076H777.851L777.905 437.097C777.581 437.086 777.754 436.924 777.754 436.816C777.754 436.686 777.656 436.556 777.667 436.415C777.602 436.426 777.516 436.393 777.461 436.415C777.44 436.329 777.418 436.166 777.332 436.09C777.256 436.036 777.007 436.047 776.899 436.004C776.758 435.928 776.79 435.874 776.574 435.841C776.325 435.841 776.303 435.906 776.238 436.047C776.152 436.264 776.422 436.372 776.574 436.588C776.65 436.686 776.715 436.783 776.78 436.881C776.812 436.946 776.78 436.989 776.844 437.043C776.877 437.097 776.985 437.086 777.018 437.162C776.834 437.216 776.574 437.065 776.336 437.097C776.098 437.141 775.957 437.292 776.217 437.4C776.444 437.487 776.596 437.379 776.725 437.584C776.79 437.703 776.877 437.866 776.931 437.985C776.747 437.974 776.65 437.855 776.487 437.801C776.379 437.768 776.152 437.747 776.033 437.736C776 437.812 775.87 437.996 775.957 438.072C776.098 438.212 776.271 438.072 776.455 438.093C776.65 438.126 777.018 438.526 777.061 438.635C776.964 438.635 776.877 438.624 776.79 438.602C776.79 438.689 776.931 438.764 776.844 438.84C776.52 439.046 776.281 439.382 776.281 439.382L776.336 439.501C776.476 439.631 776.596 439.75 776.736 439.88C776.964 440.118 776.79 440.074 776.444 440.074C776.238 440.064 776.011 440.107 775.827 440.194C775.654 440.258 774.971 440.637 775.296 440.778C775.589 440.919 775.859 440.421 776.195 440.507C776.39 440.562 776.368 440.778 776.639 440.746C776.931 440.713 776.79 440.497 777.148 440.551C777.18 440.713 777.31 440.865 777.353 441.049C777.148 441.114 776.953 441.406 777.018 441.547C777.072 441.644 777.234 441.752 777.353 441.688C777.483 441.633 777.44 441.482 777.472 441.406C777.808 441.341 778.035 442.218 777.819 442.348C777.7 442.261 777.234 442.24 777.115 442.315C776.823 442.456 777.148 442.64 777.321 442.716C777.537 442.803 777.667 442.868 777.754 443.041C777.808 443.138 777.916 443.322 777.862 443.441C777.808 443.571 777.559 443.571 777.548 443.723C777.57 443.539 775.805 443.69 775.589 443.853C775.405 443.983 775.459 444.091 775.589 444.232C775.654 444.307 775.719 444.427 775.881 444.394C776.032 444.372 776.076 444.232 776.033 444.145C776.065 444.178 776.888 443.994 776.985 444.026C777.115 444.069 777.169 444.297 777.267 444.383C777.407 444.481 777.732 444.481 777.776 444.546C777.797 444.567 777.646 444.849 777.656 444.914C777.721 445.184 777.938 445.368 777.592 445.617C777.31 445.845 777.137 445.996 777.31 446.299C777.776 446.354 777.548 446.083 777.797 445.953C777.797 446.354 777.808 453.196 777.808 453.196H777.581V454.462L776.747 454.993C776.747 455.123 776.801 455.285 776.747 455.404C776.715 455.545 776.346 455.707 776.541 455.87C776.628 455.946 776.78 455.881 776.877 455.935C776.942 455.967 776.974 456.076 777.018 456.119C777.18 456.389 777.678 456.563 777.678 456.855V462.052L775.989 463.6L776.422 463.87V469.175H775.102L775.188 469.11C775.188 469.11 775.221 469.067 775.188 469.024C775.253 468.991 775.275 468.937 775.329 468.894C775.221 468.84 775.123 468.905 775.026 468.85C774.907 468.785 774.993 468.688 775.004 468.634C775.037 468.428 775.21 468.396 775.34 468.223C775.145 468.158 775.091 468.287 774.961 468.147C774.863 468.049 775.015 467.833 774.787 467.822C774.701 467.952 774.755 468.136 774.647 468.244C774.56 468.331 774.43 468.223 774.43 468.374C774.43 468.417 774.517 468.515 774.517 468.569C774.517 468.601 774.517 468.753 774.495 468.785C774.452 468.829 774.279 468.85 774.279 468.905C774.235 469.034 774.495 469.056 774.495 469.229C774.495 469.294 773.651 471.752 773.651 471.752L773.142 472.174L773.109 472.401L773.683 472.661L773.304 481.647L773.174 481.896L772.806 489.117L772.579 489.15V499.012L771.745 500.149V501.546C771.735 501.675 771.269 501.762 771.269 501.762V501.849L771.908 501.903V503.159H771.702V503.289H771.94V519.517C768.129 519.56 764.232 520.654 762.132 522.602C761.114 523.555 760.67 525.926 758.992 526.63C758.862 526.684 758.689 526.716 758.548 526.76L758.18 517.709H758.483C758.711 517.709 758.906 517.568 758.906 517.384C758.906 517.2 758.711 517.07 758.483 517.07H758.158L758.126 516.139L757.249 514.353H757.162L756.784 492.885L757.173 492.224V491.304V491.336L757.725 491.207V490.958L758.061 490.795V490.611L766.993 490.849L767.447 490.535C767.35 489.951 767.447 486.497 767.707 485.479L767.729 485.382C767.729 485.382 767.75 485.295 767.805 485.003C767.88 484.559 767.339 484.267 767.025 484.224C766.949 484.213 766.332 484.137 766.072 484.354C765.888 484.516 765.802 484.667 765.672 484.797C765.629 484.862 765.304 484.841 765.131 484.841L758.981 484.635V483.975L759.512 483.628V483.173L756.708 482.805V482.611C756.784 482.6 756.838 482.589 756.838 482.556C756.664 481.571 757.379 480.759 757.909 480.337C758.505 479.861 758.288 479.503 757.844 479.352C758.148 479.254 758.332 479.135 758.375 478.995V478.518C759.469 477.999 760.183 477.176 760.183 476.256C760.183 475.4 759.588 474.642 758.635 474.123C758.353 473.971 758.05 473.831 757.704 473.722C757.368 473.224 757.011 472.737 757 472.023C756.567 471.784 756.426 471.351 755.788 471.221C755.571 471.232 755.755 471.514 755.701 471.622C755.095 471.665 754.705 471.86 754.185 471.947C754.358 472.25 754.802 471.903 755.192 471.947C755.084 472.163 754.597 472.131 754.272 472.207C754.337 472.423 754.207 472.521 754.185 472.672C754.445 472.65 754.532 472.607 754.38 473.008C754.521 472.964 754.575 472.867 754.586 472.748C754.846 472.759 754.608 472.975 754.586 473.008C754.986 472.997 754.705 472.553 755.106 472.542C755.365 473.354 754.131 473.181 753.687 473.527C753.763 473.614 754.564 473.365 755.106 473.322C755.593 473.3 756.361 473.365 755.506 473.397H755.484C755.019 473.408 754.564 473.462 754.153 473.56C753.817 473.614 753.525 473.69 753.287 473.798H753.352C753.103 473.874 752.897 473.971 752.691 474.09C751.706 474.61 751.089 475.389 751.089 476.245C751.089 477.165 751.782 477.988 752.897 478.507V478.93C752.897 479.06 753.038 479.179 753.287 479.287C752.789 479.428 752.54 479.915 753.059 480.348C753.59 480.803 754.434 481.604 754.272 482.675C754.272 482.708 754.239 482.773 754.229 482.86L752.778 482.946L751.717 484.007V484.397L745.849 484.202H745.708C745.611 484.18 745.557 484.137 745.535 483.888C745.503 483.487 744.701 483.401 744.225 483.444C743.944 483.466 743.262 483.845 743.197 484.548C743.197 484.624 743.208 484.722 743.208 484.722C743.478 485.999 743.597 489.745 743.5 490.167L743.576 490.2L753.178 490.449L752.886 490.709L752.94 491.12L753.352 491.217V491.412H753.395L753.817 491.466V492.203L754.229 492.906L754.315 514.32H754.218L753.287 516.107L753.233 517.038H752.908C752.68 517.038 752.486 517.179 752.486 517.352C752.486 517.525 752.68 517.677 752.908 517.677H753.211L752.832 526.868C751.782 526.825 750.775 526.803 749.974 526.911C749.075 524.973 749.898 522.299 750.017 520.199H741.703C741.703 520.199 741.605 521.682 741.486 523.371H736.679V521.552L736.127 521.173V520.481L737.188 520.037V519.614H733.745V491.564H733.117L734.07 491.098V490.838L733.096 490.427V487.385L734.07 486.064H733.302V485.415L734.243 484.776V484.548H733.107V483.433L732.933 483.119V482.87L734.254 482.394V482.026H734.579V481.463H736.603L737.784 480.51V480.077L739.159 478.973V473.581H713.825L695.897 465.061H661.351V459.464L662.477 459.096V458.88C662.477 458.88 661.589 458.479 661.589 458.511V458.284L661.751 458.089L662.141 457.981L662.758 457.884V457.548C662.758 457.548 662.552 457.472 662.26 457.461H663.732C663.711 457.277 664.306 456.595 664.761 456.465L664.848 456.444V456.086H662.747V455.881H661.329V454.527H660.56V454.084H659.954V451.063C660.138 450.771 660.506 450.381 661.199 450.186L661.286 450.164V449.601H660.744L659.748 449.255V448.595L658.882 448.313V448.086H659.088V447.739H658.655L658.189 430.601L658.124 430.526L658.817 430.266V430.06L657.93 429.746V429.486L658.817 429.281V429.032H657.93V428.761H658.817L659.716 427.895V427.581L659.315 427.429H658.254V427.094L658.882 426.682V426.26H657.648V425.502L659.142 424.268H660.322L661.654 423.413V423.153H657.919V422.298L656.923 421.919V421.486H657.258V421.215H657.745L658.373 420.674V420.262H644.765V409.891C644.765 409.891 645.079 409.317 645.512 409.317V409.112H644.624V407.737L645.739 407.195H646.432L646.908 406.914V406.416L647.125 406.286V405.939H644.635V405.008H644.148V403.482H643.379C643.303 400.624 640.716 386.149 617.515 378.647V377.25H616.758V376.341L617.515 375.767H618.122L618.869 375.096V374.836H618.63V374.673H617.375V373.439L617.635 373.028H617.353L617.169 373.147H613.174V372.638L614.213 372.021V371.588H613.174V370.83H612.687L612.492 365.785L612.849 365.558V365.309H612.687V365.006L613.206 364.67V364.464H612.503V363.858L613.044 363.501V363.349H612.503V362.786L613.975 361.628V361.271H613.326L613.174 361.368H612.633V360.957H612.405V360.653H611.972C611.897 358.867 610.305 356.778 608.237 356.106V355.728H608.075V355.446H607.588V355.056H607.068L606.494 354.58V354.212H606.852C607.057 354.212 607.22 354.104 607.22 353.963C607.22 353.822 607.057 353.714 606.852 353.714H606.689V352.815H606.354V352.555H606.04V352.35H605.866V350.163H607.046L607.447 350.423L608.075 350.022L607.447 349.611L607.046 349.871H605.866V349.08L606.256 348.82L605.628 348.409L605 348.82L605.401 349.08V349.871H604.221L603.831 349.611L603.203 350.022L603.831 350.423L604.221 350.163H605.401V352.35H605.206V352.555H604.881V352.815H604.556V353.714H604.394C604.177 353.714 604.004 353.833 604.004 353.963C604.004 354.093 604.167 354.212 604.394 354.212H604.751V354.58L604.167 355.056H603.658V355.446H603.171V355.728H603.008V356.106C600.94 356.778 599.316 358.867 599.262 360.653H598.819V360.957H598.591V361.368H598.05L597.909 361.271H597.249V361.628L598.732 362.786V363.349H598.191V363.501L598.732 363.858V364.464H598.028V364.67L598.548 365.006V365.309H598.385V365.558L598.743 365.785L598.548 370.83H598.05V371.588H597.021V372.021L598.05 372.638V373.147H594.055L593.871 373.028H593.6L593.838 373.439V374.673H592.594V374.836H592.366V375.096L593.113 375.767H593.719L594.477 376.341V377.25H593.719V378.647C570.519 386.149 567.931 400.624 567.856 403.482H567.087V405.008H566.6V405.939H564.11V406.286L564.315 406.416V406.914L564.803 407.195H565.485L566.6 407.737V409.112H565.712V409.317C566.145 409.317 566.459 409.891 566.459 409.891V420.262H552.851V420.674L553.478 421.215H553.976V421.486H554.312V421.919L553.305 422.298V423.153H549.581V423.413L550.891 424.268H552.093L553.587 425.502V426.26H552.352V426.682L552.98 427.094V427.429H551.919L551.53 427.581V427.895L552.428 428.761H553.316V429.032H552.428V429.281L553.316 429.486V429.746L552.428 430.06V430.266L553.121 430.526L553.045 430.601L552.591 447.739H552.147V448.086H552.352V448.313L551.508 448.595V449.255L550.512 449.601H549.96V450.164L550.057 450.186C550.739 450.392 551.118 450.771 551.313 451.063V454.084H550.685V454.527H549.917V455.881H548.52V456.086H546.42V456.444L546.496 456.465C546.972 456.595 547.556 457.266 547.546 457.472H549.018C548.726 457.472 548.52 457.494 548.52 457.548V457.884L549.126 457.981L549.527 458.089L549.678 458.284V458.511L548.802 458.88V459.096L549.927 459.464V465.061H515.392L497.474 473.581H472.141V478.973L473.505 480.077V480.51L474.685 481.463H476.721V482.026H477.035V482.394L478.345 482.87V483.119L478.182 483.433V484.548H477.035V484.776L477.977 485.415V486.064H477.208L478.182 487.385V490.427L477.208 490.838V491.098L478.161 491.564H477.533V519.614H474.09V520.037L475.151 520.481V521.173L474.61 521.552V524.032L474.231 524.129V527.041L472.152 527.052V518.12L470.149 515.392H462.56C460.059 512.188 457.104 508.409 454.137 504.566C450.424 499.77 446.678 494.855 443.842 491.012V490.979H443.809C441.362 487.656 439.598 485.144 439.1 484.224H440.442V481.322H442.726V478.074H442.402V477.414L439.067 477.425L438.97 473.452H441.297V472.012H432.344C429.486 465.613 426.292 457.883 423.477 450.121H423.51L423.477 450.089C421.031 443.366 418.844 436.643 417.371 430.775H417.393C417.393 430.775 417.815 429.454 418.855 428.685C419.342 428.566 419.851 428.555 420.186 428.534C420.381 428.534 420.479 428.534 420.479 428.534C420.63 428.545 420.793 428.523 420.901 428.447C421.009 428.371 421.085 428.285 421.085 428.176V425.654C421.085 425.654 421.031 425.557 420.987 425.513V425.102C420.987 425.004 420.944 424.918 420.836 424.853C420.728 424.788 420.598 424.745 420.446 424.745H419.277V424.084C419.277 423.987 419.223 423.9 419.114 423.824C419.017 423.759 418.876 423.727 418.725 423.727H416.7C416.668 423.629 416.581 423.521 416.462 423.402C416.278 422.731 414.492 416.462 412.543 405.615C410.486 394.128 408.245 377.499 407.531 356.962L403.027 288.497L403.687 287.739L407.087 283.019V280.377H405.04V277.714H406.231V275.657H405.268V275.354H405.874V273.373L406.015 272.972H405.019V272.279L401.966 269.129L398.177 267.191L397.397 266.097L397.376 265.448H398.707L398.675 262.525H397.365V261.756H398.675V258.833H397.365V258.054H398.675L398.653 255.12H397.365L397.343 252.749H396.044L396.022 239.443H391.443L391.475 252.77H390.23V255.141H388.78V258.064H390.23V258.833H388.78L388.812 261.767H390.252V262.536H388.801V265.459H390.263V266.595L389.483 267.299L385.564 269.324L383.464 270.688L382.154 272.409H382.078V272.517L381.829 272.831L381.97 272.994H381.764H381.244V275.376H381.851L381.872 275.679H380.898V277.725H382.089L382.111 280.399H380.054V283.051L383.529 287.782L384.178 288.497L383.561 298.609C383.464 298.706 383.464 298.814 383.54 298.912L379.999 356.983C379.761 365.071 379.274 372.53 378.668 379.339C378.614 379.415 378.592 379.48 378.646 379.567C378.018 386.485 377.239 392.688 376.438 398.101C376.373 398.188 376.362 398.253 376.405 398.35C376.015 400.97 375.604 403.395 375.214 405.636C373.32 416.517 371.566 422.785 371.36 423.435C371.274 423.554 371.198 423.651 371.154 423.749H369.13C368.978 423.749 368.838 423.781 368.729 423.857C368.621 423.922 368.578 424.008 368.567 424.106V424.766H367.409C367.257 424.766 367.116 424.809 367.008 424.874C366.911 424.95 366.846 425.037 366.856 425.134V425.546C366.856 425.546 366.77 425.632 366.77 425.686V428.209C366.77 428.306 366.856 428.404 366.954 428.48C367.095 428.545 367.235 428.566 367.398 428.555H367.69C368.036 428.555 368.556 428.588 369.011 428.696C370.072 429.465 370.494 430.764 370.494 430.764C369.043 436.664 366.911 443.387 364.496 450.11H364.464L364.486 450.132C361.714 457.905 358.564 465.646 355.738 472.055H348.062V473.506H350.097V477.858H347.802V478.691H347.607L347.445 481.528H349.166V483.78L348.798 483.996C348.874 484.105 348.95 484.202 349.015 484.289C348.517 485.22 346.752 487.731 344.338 491.044H344.295V491.087C341.48 494.931 337.788 499.846 334.086 504.663C329.863 510.163 325.663 515.565 322.783 519.279H322.198V470.496H302.322V493.534L301.694 498.752H292.015L292.275 454.582L273.708 448.53V436.426H270.871L270.633 507.792H263.445V514.645H259.179V429.638H134.061V514.645H130.38V499.976H124.696L124.501 489.539V469.803H111.586V448.476H96.6563V441.644H93.4193V448.476H89.3811V488.251H79.9839V504.534H74.5275V444.795H42.915V504.534H38.2165V458.403H17.9715V503.884L16.7265 519.311H13.5436L5.97607 522.635V527.009H-0.747009V582.406H1468.15V527.009H1467.65V524.4L1468.52 524.129V523.826L1467.51 523.555V521.585H1467.24V521.065H1466.8V514.147H1466.95L1467.19 513.844H1466.8V508.875H1466.84L1467.09 508.572H1466.8V508.225H1467.2V508.03H1466.8V507.63H1467.33C1467.24 507.229 1467.6 506.991 1467.6 506.991H1467.4V506.84H1467.6V506.742H1466.8V506.374L1467.33 505.973V505.779L1466.8 505.616V505.432L1468.63 504.046L1468.7 503.722H1469.74V503.516L1466.92 500.517L1466.95 500.365Z" fill="#B2ACAC"/>
</g>
<defs>
<filter id="filter0_d_675_3859" x="-208.351" y="102.903" width="508.149" height="488.037" filterUnits="userSpaceOnUse" color-interpolation-filters="sRGB">
<feFlood flood-opacity="0" result="BackgroundImageFix"/>
<feColorMatrix in="SourceAlpha" type="matrix" values="0 0 0 0 0 0 0 0 0 0 0 0 0 0 0 0 0 0 127 0" result="hardAlpha"/>
<feOffset dx="13" dy="6"/>
<feGaussianBlur stdDeviation="7"/>
<feColorMatrix type="matrix" values="0 0 0 0 0.419608 0 0 0 0 0.223529 0 0 0 0 0.278431 0 0 0 0.14 0"/>
<feBlend mode="normal" in2="BackgroundImageFix" result="effect1_dropShadow_675_3859"/>
<feBlend mode="normal" in="SourceGraphic" in2="effect1_dropShadow_675_3859" result="shape"/>
</filter>
<filter id="filter1_d_675_3859" x="899.486" y="313.811" width="448.584" height="322.682" filterUnits="userSpaceOnUse" color-interpolation-filters="sRGB">
<feFlood flood-opacity="0" result="BackgroundImageFix"/>
<feColorMatrix in="SourceAlpha" type="matrix" values="0 0 0 0 0 0 0 0 0 0 0 0 0 0 0 0 0 0 127 0" result="hardAlpha"/>
<feOffset dx="-12" dy="11"/>
<feGaussianBlur stdDeviation="6"/>
<feColorMatrix type="matrix" values="0 0 0 0 0.419608 0 0 0 0 0.223529 0 0 0 0 0.278431 0 0 0 0.38 0"/>
<feBlend mode="normal" in2="BackgroundImageFix" result="effect1_dropShadow_675_3859"/>
<feBlend mode="normal" in="SourceGraphic" in2="effect1_dropShadow_675_3859" result="shape"/>
</filter>
<filter id="filter2_d_675_3859" x="1162.27" y="190.892" width="415.665" height="360.859" filterUnits="userSpaceOnUse" color-interpolation-filters="sRGB">
<feFlood flood-opacity="0" result="BackgroundImageFix"/>
<feColorMatrix in="SourceAlpha" type="matrix" values="0 0 0 0 0 0 0 0 0 0 0 0 0 0 0 0 0 0 127 0" result="hardAlpha"/>
<feOffset dx="-15" dy="4"/>
<feGaussianBlur stdDeviation="7"/>
<feColorMatrix type="matrix" values="0 0 0 0 0.419608 0 0 0 0 0.223529 0 0 0 0 0.278431 0 0 0 0.14 0"/>
<feBlend mode="normal" in2="BackgroundImageFix" result="effect1_dropShadow_675_3859"/>
<feBlend mode="normal" in="SourceGraphic" in2="effect1_dropShadow_675_3859" result="shape"/>
</filter>
<filter id="filter3_d_675_3859" x="161.392" y="364.738" width="394.264" height="299.345" filterUnits="userSpaceOnUse" color-interpolation-filters="sRGB">
<feFlood flood-opacity="0" result="BackgroundImageFix"/>
<feColorMatrix in="SourceAlpha" type="matrix" values="0 0 0 0 0 0 0 0 0 0 0 0 0 0 0 0 0 0 127 0" result="hardAlpha"/>
<feOffset dx="15" dy="6"/>
<feGaussianBlur stdDeviation="6"/>
<feColorMatrix type="matrix" values="0 0 0 0 0.419608 0 0 0 0 0.223529 0 0 0 0 0.278431 0 0 0 0.38 0"/>
<feBlend mode="normal" in2="BackgroundImageFix" result="effect1_dropShadow_675_3859"/>
<feBlend mode="normal" in="SourceGraphic" in2="effect1_dropShadow_675_3859" result="shape"/>
</filter>
<filter id="filter4_d_675_3859" x="-1.93788" y="363.074" width="1494.06" height="231.071" filterUnits="userSpaceOnUse" color-interpolation-filters="sRGB">
<feFlood flood-opacity="0" result="BackgroundImageFix"/>
<feColorMatrix in="SourceAlpha" type="matrix" values="0 0 0 0 0 0 0 0 0 0 0 0 0 0 0 0 0 0 127 0" result="hardAlpha"/>
<feOffset dx="15" dy="16"/>
<feGaussianBlur stdDeviation="6"/>
<feColorMatrix type="matrix" values="0 0 0 0 0.266667 0 0 0 0 0.0627451 0 0 0 0 0.113725 0 0 0 0.38 0"/>
<feBlend mode="normal" in2="BackgroundImageFix" result="effect1_dropShadow_675_3859"/>
<feBlend mode="normal" in="SourceGraphic" in2="effect1_dropShadow_675_3859" result="shape"/>
</filter>
</defs>
</svg>
