<svg width="43" height="24" viewBox="0 0 43 24" fill="none" xmlns="http://www.w3.org/2000/svg">
<path fill-rule="evenodd" clip-rule="evenodd" d="M23.4757 6.66103C24.3721 5.32262 26.6834 3.45248 28.3566 3.35902C29.5764 3.29107 30.2499 3.48047 31.3309 3.97394C32.1239 4.41131 32.746 4.75418 33.3754 5.46881C34.1488 6.34719 35.2535 7.94541 36.1965 9.21417C36.9916 10.2838 37.9846 11.8424 38.5665 12.9135C39.5622 14.7459 40.1835 16.4007 38.9318 18.2673L38.7083 18.618C38.7031 18.6246 38.688 18.6433 38.6824 18.6495C38.6783 18.6538 38.6724 18.6599 38.6682 18.6641C38.37 18.9673 38.0669 19.1523 37.7105 19.3742C37.6327 19.4226 37.7043 19.3766 37.6468 19.4253C37.0262 19.9498 35.1882 20.028 34.4909 19.6487L34.435 19.6185C34.3005 19.5594 34.0819 19.4577 33.8899 19.2275L24.0782 7.46522L23.4755 6.66103H23.4757ZM0.141945 14.91C0.210544 14.4172 0.458254 13.8305 0.620706 13.3502C0.672383 13.2514 0.69451 13.2342 0.73304 13.1181C0.940791 12.4926 2.67894 9.96408 2.96844 9.55378C3.01218 9.49182 3.00033 9.50146 3.02936 9.44236C3.11371 9.27106 3.25508 9.11264 3.36611 8.94642L3.76846 8.31509C3.82274 8.23374 3.84956 8.18063 3.89993 8.10201L6.07051 4.81744C6.16657 4.67386 6.25249 4.55958 6.3522 4.41001C6.71472 3.8659 7.08336 3.33702 7.54845 2.8787C7.62604 2.80216 7.63931 2.76779 7.70622 2.6919C7.96825 2.39459 8.26803 2.11772 8.58617 1.87782C9.95477 0.845838 11.7648 0 13.5128 0C15.4065 0 17.2772 0.393633 18.8288 1.54602C18.9723 1.6525 19.1058 1.73203 19.2463 1.84632C19.4092 1.97909 20.0234 2.47647 20.1947 2.67798C20.2622 2.75738 20.2741 2.78601 20.3531 2.86412L20.6975 3.23757C20.766 3.30591 20.8238 3.35082 20.8674 3.44103L21.2937 4.04827L21.4193 3.91549C21.4231 3.91094 21.4284 3.9043 21.4323 3.89974C21.4348 3.89688 21.4693 3.85301 21.4705 3.85171C21.4744 3.84729 21.48 3.84091 21.484 3.83648L21.5129 3.80784C21.5418 3.77934 21.5279 3.79613 21.5577 3.76658L22.5747 2.77365C22.7339 2.62565 22.8719 2.45669 23.0411 2.32118C23.1744 2.21444 23.2854 2.11083 23.4183 2.00929C23.4843 1.95879 23.5454 1.91896 23.6121 1.85869C25.5613 0.0963259 28.4015 -0.117282 30.8448 0.313449C31.7203 0.4677 33.231 1.1369 33.9109 1.6525L34.2959 1.95658C34.5787 2.14923 34.8795 2.46215 35.1259 2.7057L35.765 3.41604C36.1576 3.93307 36.4909 4.50517 36.8798 5.02884C37.2052 5.46712 37.4691 5.94471 37.7909 6.38598C38.109 6.82231 38.3469 7.31331 38.6724 7.74404C38.9089 8.05697 39.0043 8.26875 39.2157 8.57895C39.2916 8.69037 39.3187 8.71836 39.382 8.84332L40.261 10.2039C40.4077 10.3688 40.5285 10.6023 40.6408 10.7715L41.1911 11.5708C41.4346 11.936 41.673 12.3061 41.8709 12.6997C41.9749 12.9067 42.0436 13.106 42.1478 13.3129L42.4008 13.9788C42.5293 14.4032 42.7235 15.0102 42.7417 15.4467C42.7527 15.7095 42.7989 16.0033 42.7989 16.2795C42.7989 17.0525 42.6533 17.8095 42.4486 18.542C42.2292 19.3261 41.6875 20.1349 41.187 20.7545C40.861 21.158 40.4825 21.5062 40.0915 21.841C39.1854 22.6171 38.189 22.8632 37.0788 23.1351C36.8993 23.179 36.0842 23.2277 35.8793 23.2277C33.9485 23.2277 32.8311 22.7044 31.3549 21.6365C30.8807 21.2659 30.5515 20.7554 30.1593 20.3054C27.6248 17.1925 21.569 8.81794 17.8557 5.10329L17.4465 4.73726C17.3626 4.67269 17.3222 4.62492 17.2293 4.55242C16.5926 4.05582 16.2839 3.90261 15.5539 3.64384C14.1618 2.99182 11.7973 3.31789 10.5637 4.60175C10.3285 4.7987 9.66553 5.48157 9.44529 5.81116C9.44203 5.8161 9.43708 5.82339 9.43396 5.8282L9.30731 6.01343C8.73612 6.651 4.41684 13.4551 3.73071 14.6797L3.5326 15.1994C3.50956 15.3147 3.50383 15.3797 3.48079 15.492C3.1706 17.0055 3.4774 17.5222 4.21351 18.6305C5.00364 19.8213 6.97102 20.1013 8.2627 19.6997C8.66817 19.5736 9.15318 19.2371 9.47171 18.9563C9.87745 18.5989 10.4575 17.723 10.78 17.2787C10.8408 17.1962 10.803 17.1614 10.9165 17.0992C11.2973 16.8901 11.1828 17.4335 11.195 17.592L11.3023 18.3178C11.3158 18.4838 11.377 18.595 11.4175 18.7482C11.5333 19.1868 11.6532 19.5957 11.8196 20.0113C11.8494 20.0857 11.8617 20.1363 11.8921 20.226L11.9829 20.3935C11.9978 20.4194 11.9966 20.422 12.0126 20.45C12.0157 20.4556 12.0199 20.4629 12.023 20.4682L12.0876 20.5759C12.2905 21.0108 11.9501 21.1534 11.7292 21.3859C11.3977 21.7011 11.0779 21.968 10.6799 22.2029C8.63172 23.3489 6.14926 23.7075 4.00954 22.6245C2.71851 21.9717 1.50118 20.9739 0.822341 19.6674C-0.0445874 17.7782 -0.140265 16.9526 0.142333 14.9096L0.141945 14.91Z" fill="#FF2F09"/>
<path fill-rule="evenodd" clip-rule="evenodd" d="M11.991 16.9817L12.0443 17.8989C12.0587 18.0347 12.1181 18.1142 12.1518 18.2577C12.1892 18.4169 12.1862 18.5265 12.2406 18.6656C12.2733 18.7496 12.2764 18.7268 12.2993 18.8397C12.3106 18.8956 12.3205 18.9775 12.3405 19.0322C12.3671 19.104 12.3878 19.1019 12.4155 19.1892C12.4357 19.2524 12.4423 19.3437 12.4651 19.4022C12.5035 19.5009 12.5048 19.4365 12.5503 19.5486C12.5982 19.6669 12.5601 19.6429 12.609 19.7227L12.6593 19.7875C12.6859 19.8332 12.6783 19.8318 12.6916 19.8714L12.9413 20.3457C13.1522 20.7746 13.2362 20.7732 13.3242 20.9156C13.3539 20.9638 13.3617 21.0144 13.4021 21.0693L13.4743 21.1407C13.4786 21.1447 13.4857 21.1498 13.4898 21.1539C13.5286 21.193 13.5009 21.1588 13.5296 21.2004L13.9673 21.7126C14.0842 21.8205 14.1864 21.9529 14.3204 22.0482C14.4067 22.1095 14.4122 22.0779 14.4259 22.2025C14.578 22.2019 14.5749 22.2427 14.6664 22.3324C14.8752 22.5371 15.0926 22.6682 15.3438 22.8278C15.6877 23.0461 15.7032 22.9917 15.8628 23.0773C15.9561 23.1274 16.0236 23.1665 16.1274 23.2114L16.8224 23.4818C16.8829 23.5054 16.9055 23.5109 16.97 23.5327C17.1372 23.5888 17.077 23.573 17.2731 23.5967C17.3833 23.6101 17.4528 23.6682 17.5732 23.6934C17.685 23.7168 17.7915 23.7103 17.8984 23.7342C18.7704 23.9291 20.0151 23.8326 20.8165 23.6206C21.0743 23.5526 21.2371 23.4741 21.4614 23.393L21.9278 23.2197C22.1259 23.1445 22.2341 23.0491 22.3376 22.9928C22.4893 22.9102 22.371 23.0457 22.9129 22.6993C23.374 22.4046 24.0725 21.829 24.4123 21.3941L25.2114 22.3972C25.3272 22.533 25.228 22.4991 25.4365 22.4621C26.1838 22.3294 29.2609 22.9146 29.9577 22.3616C29.9572 22.3594 24.5817 15.9725 23.3021 14.224C22.8917 13.6631 22.4891 13.3685 22.1702 13.3905C22.1046 13.3951 22.052 13.3531 21.9704 13.3764C21.7094 13.4506 21.461 13.5785 21.2228 13.7422C20.7647 14.0572 18.6022 16.3015 18.1205 16.8982C17.7664 17.3367 19.0165 18.3835 19.5772 18.8989C19.9794 19.2686 19.8815 19.2912 20.3832 18.7591C20.7764 18.3419 21.2919 17.7508 21.4837 17.7186L22.2632 18.6971L22.2117 18.7595C22.1374 18.8436 22.1098 18.8708 22.0417 18.962L21.6832 19.3776C21.3567 19.7088 20.7116 20.2141 20.2671 20.273C20.1162 20.2929 20.1042 20.3619 19.9776 20.3901C19.8701 20.4142 19.7642 20.4155 19.6471 20.4403C19.2831 20.5177 19.4649 20.5195 19.0345 20.5308C18.7704 20.5377 18.5522 20.4685 18.2928 20.4279C18.042 20.3885 17.5594 20.2093 17.341 20.0742L17.0441 19.9154C16.6902 19.6729 16.4004 19.3858 16.1152 19.0656C15.8925 18.8154 15.7087 18.5479 15.6341 18.2158C15.4968 17.6034 15.4004 17.7589 15.3762 16.8358L15.5076 15.8969C15.5384 15.7778 15.5458 15.7082 15.5721 15.5944C15.6083 15.437 15.5606 15.5809 15.632 15.4832C15.7239 15.3579 15.6487 15.4873 15.6858 15.3384C15.7121 15.2323 15.6829 15.3098 15.7453 15.2269C15.7489 15.2221 15.7552 15.2164 15.7585 15.2116C15.8294 15.1109 15.8458 15.0279 15.9643 14.8751C16.23 14.4489 19.2946 11.2242 20.1559 10.2034C20.2597 10.0804 20.4393 9.9345 20.3755 9.72831C20.3164 9.53709 19.8481 9.08527 19.6989 8.90655L19.3537 8.50355C19.2846 8.39538 19.2481 8.39134 19.1785 8.30464L19.0934 8.18801C18.9542 8.01502 18.7927 7.8691 18.666 7.69455C18.5724 7.56555 18.364 7.42717 18.3233 7.28906C18.0448 7.29635 18.0542 7.37888 17.9123 7.57088C16.4954 9.55337 13.8989 11.7454 13.0506 13.1182L12.801 13.5809C12.777 13.633 12.7732 13.6472 12.7503 13.7008C12.6605 13.9113 12.6172 13.9448 12.5276 14.1892L12.3697 14.5711C12.3146 14.6882 12.3438 14.7375 12.3093 14.8497C12.2697 14.9787 12.2343 14.9238 12.2066 15.088C12.1592 15.3684 12.099 15.3695 12.1017 15.6882C12.103 15.8404 11.9704 16.2046 11.9908 16.9824L11.991 16.9817Z" fill="#FEA000"/>
</svg>
