<svg width="131" height="95" viewBox="0 0 131 95" fill="none" xmlns="http://www.w3.org/2000/svg">
<g clip-path="url(#clip0_91_3732)">
<path fill-rule="evenodd" clip-rule="evenodd" d="M68.5894 14.7371C70.5728 11.8111 75.6871 7.72246 79.3895 7.51813C82.0886 7.36958 83.5789 7.78365 85.971 8.8625C87.7257 9.8187 89.1022 10.5683 90.4949 12.1306C92.2064 14.051 94.6506 17.5451 96.7374 20.3189C98.4967 22.6574 100.694 26.065 101.982 28.4065C104.185 32.4126 105.56 36.0305 102.79 40.1114L102.295 40.8781C102.284 40.8926 102.25 40.9333 102.238 40.9469C102.229 40.9563 102.216 40.9697 102.207 40.9788C101.547 41.6416 100.876 42.0463 100.088 42.5312C99.9153 42.6371 100.074 42.5366 99.9464 42.643C98.5733 43.7896 94.5063 43.9606 92.9633 43.1314L92.8395 43.0654C92.5419 42.9362 92.0583 42.7139 91.6335 42.2105L69.9224 16.4953L68.5888 14.7371H68.5894ZM16.9574 32.7714C17.1092 31.694 17.6573 30.4114 18.0168 29.3613C18.1311 29.1453 18.1801 29.1077 18.2653 28.8539C18.725 27.4864 22.5711 21.9584 23.2117 21.0614C23.3085 20.926 23.2823 20.947 23.3465 20.8178C23.5332 20.4433 23.846 20.097 24.0917 19.7336L24.982 18.3533C25.1021 18.1755 25.1614 18.0594 25.2729 17.8875L30.0758 10.7066C30.2884 10.3927 30.4785 10.1428 30.6992 9.81586C31.5013 8.6263 32.317 7.47004 33.3462 6.46802C33.5178 6.30069 33.5472 6.22555 33.6953 6.05964C34.2751 5.40965 34.9384 4.80435 35.6424 4.27986C38.6708 2.02369 42.6759 0.174477 46.5439 0.174477C50.7342 0.174477 54.8735 1.03506 58.3069 3.55447C58.6243 3.78725 58.9198 3.96113 59.2306 4.21099C59.5912 4.50127 60.9501 5.58866 61.3292 6.0292C61.4787 6.20279 61.5049 6.26539 61.6797 6.43614L62.4419 7.25261C62.5934 7.40202 62.7213 7.50021 62.8178 7.69742L63.7611 9.025L64.039 8.73472C64.0474 8.72476 64.0592 8.71025 64.0678 8.70029C64.0733 8.69403 64.1496 8.59812 64.1522 8.59528C64.1609 8.5856 64.1732 8.57166 64.1822 8.56198L64.2461 8.49937C64.31 8.43705 64.2792 8.47376 64.3452 8.40916L66.5956 6.23837C66.9479 5.9148 67.2532 5.5454 67.6276 5.24915C67.9226 5.01579 68.1683 4.78927 68.4623 4.56729C68.6084 4.45687 68.7435 4.3698 68.8912 4.23803C73.2042 0.385069 79.4888 -0.0819302 84.8952 0.859754C86.8325 1.19698 90.1754 2.66001 91.6798 3.78725L92.5319 4.45204C93.1575 4.87322 93.8231 5.55735 94.3683 6.08981L95.7826 7.64279C96.6513 8.77315 97.3887 10.0239 98.2493 11.1688C98.9694 12.127 99.5532 13.1711 100.265 14.1358C100.969 15.0897 101.496 16.1632 102.216 17.1049C102.739 17.789 102.95 18.252 103.418 18.9302C103.586 19.1738 103.646 19.235 103.786 19.5082L105.731 22.4826C106.056 22.8432 106.323 23.3537 106.571 23.7237L107.789 25.471C108.328 26.2696 108.856 27.0786 109.293 27.9392C109.524 28.3917 109.676 28.8274 109.906 29.2799L110.466 30.7355C110.75 31.6636 111.18 32.9906 111.22 33.9448C111.245 34.5193 111.347 35.1616 111.347 35.7655C111.347 37.4554 111.025 39.1105 110.572 40.7119C110.086 42.4262 108.888 44.1943 107.78 45.5489C107.059 46.4311 106.221 47.1924 105.356 47.9243C103.351 49.621 101.146 50.1592 98.6897 50.7536C98.2925 50.8496 96.4888 50.956 96.0355 50.956C91.7631 50.956 89.2906 49.812 86.024 47.4772C84.9747 46.667 84.2463 45.5509 83.3784 44.5671C77.7701 37.7616 64.3702 19.4527 56.1535 11.3315L55.2482 10.5313C55.0624 10.3901 54.9732 10.2857 54.7675 10.1272C53.3587 9.0415 52.6755 8.70656 51.0602 8.14081C47.98 6.71533 42.7479 7.42821 40.0182 10.235C39.4977 10.6656 38.0308 12.1585 37.5434 12.8791C37.5362 12.8899 37.5253 12.9058 37.5183 12.9164L37.2381 13.3213C35.9742 14.7152 26.4167 29.5906 24.8984 32.268L24.4601 33.4041C24.4091 33.6562 24.3964 33.7982 24.3454 34.0438C23.659 37.3526 24.3379 38.4824 25.9668 40.9054C27.7151 43.5087 32.0685 44.1209 34.9266 43.2429C35.8238 42.9672 36.8971 42.2315 37.6019 41.6177C38.4997 40.8362 39.7832 38.9213 40.4969 37.95C40.6314 37.7696 40.5476 37.6936 40.7988 37.5575C41.6415 37.1005 41.3881 38.2883 41.4151 38.635L41.6525 40.2218C41.6824 40.5847 41.8178 40.8277 41.9074 41.1626C42.1637 42.1217 42.429 43.0156 42.7971 43.9242C42.8631 44.0867 42.8904 44.1974 42.9576 44.3935L43.1586 44.7598C43.1914 44.8164 43.1889 44.8221 43.2243 44.8833C43.2312 44.8955 43.2404 44.9115 43.2473 44.9231L43.3902 45.1585C43.8392 46.1092 43.086 46.4212 42.5972 46.9294C41.8636 47.6184 41.1559 48.2021 40.2754 48.7155C35.7432 51.2209 30.2501 52.005 25.5154 49.6372C22.6587 48.21 19.965 46.0287 18.4629 43.1724C16.5446 39.0419 16.3329 37.2371 16.9582 32.7706L16.9574 32.7714Z" fill="#FF2509"/>
<path fill-rule="evenodd" clip-rule="evenodd" d="M43.1767 37.3008L43.2946 39.306C43.3265 39.6028 43.4579 39.7767 43.5325 40.0903C43.6151 40.4384 43.6085 40.678 43.7289 40.9822C43.8012 41.1658 43.8081 41.116 43.8588 41.3627C43.8839 41.4851 43.9058 41.6641 43.9501 41.7836C44.0089 41.9407 44.0547 41.9361 44.116 42.1268C44.1607 42.2651 44.1754 42.4646 44.2258 42.5927C44.3107 42.8084 44.3136 42.6675 44.4142 42.9125C44.5201 43.1712 44.436 43.1189 44.544 43.2933L44.6555 43.435C44.7143 43.5349 44.6976 43.5318 44.727 43.6183L45.2794 44.6553C45.746 45.593 45.9321 45.5899 46.1268 45.9012C46.1925 46.0065 46.2097 46.1172 46.299 46.2373L46.4589 46.3933C46.4684 46.4021 46.484 46.4132 46.4932 46.4223C46.579 46.5077 46.5177 46.4328 46.5813 46.5239L47.5497 47.6437C47.8083 47.8796 48.0344 48.1691 48.3311 48.3774C48.5221 48.5114 48.5342 48.4423 48.5644 48.7146C48.9011 48.7135 48.8942 48.8026 49.0967 48.9986C49.5587 49.4463 50.0397 49.7328 50.5956 50.0817C51.3566 50.559 51.3909 50.44 51.744 50.6273C51.9505 50.7369 52.0997 50.8222 52.3296 50.9204L53.8674 51.5115C54.0013 51.5633 54.0512 51.5752 54.194 51.6228C54.5639 51.7454 54.4308 51.711 54.8646 51.7628C55.1085 51.7921 55.2623 51.919 55.5288 51.9742C55.7762 52.0254 56.0118 52.0112 56.2483 52.0633C58.1778 52.4896 60.932 52.2784 62.7054 51.8151C63.2757 51.6663 63.636 51.4947 64.1323 51.3174L65.1644 50.9386C65.6027 50.7741 65.8421 50.5655 66.0711 50.4426C66.4069 50.2619 66.1451 50.5581 67.3442 49.8009C68.3644 49.1566 69.91 47.8981 70.662 46.9474L72.4303 49.1404C72.6863 49.4372 72.4669 49.3632 72.9283 49.2824C74.5819 48.9921 81.3907 50.2716 82.9325 49.0627C82.9314 49.0578 71.0368 35.0945 68.2054 31.2717C67.2972 30.0454 66.4064 29.4014 65.7007 29.4495C65.5555 29.4595 65.4391 29.3678 65.2585 29.4188C64.681 29.581 64.1315 29.8604 63.6044 30.2184C62.5908 30.9071 57.8057 35.8136 56.7397 37.1181C55.9562 38.0769 58.7225 40.3655 59.963 41.4922C60.8531 42.3004 60.6365 42.3499 61.7466 41.1865C62.6167 40.2745 63.7573 38.9822 64.1816 38.9119L65.9066 41.0511L65.7926 41.1874C65.6281 41.3712 65.567 41.4307 65.4164 41.6302L64.6231 42.5389C63.9007 43.2629 62.4733 44.3676 61.4896 44.4962C61.1558 44.5398 61.1293 44.6906 60.849 44.7524C60.6111 44.805 60.377 44.8079 60.1177 44.8622C59.3124 45.0313 59.7145 45.0352 58.7622 45.06C58.1778 45.0751 57.6951 44.9237 57.121 44.8349C56.566 44.749 55.4982 44.3571 55.0149 44.0617L54.3579 43.7145C53.5748 43.1843 52.9336 42.5568 52.3025 41.8567C51.8097 41.3098 51.403 40.725 51.2379 39.9987C50.9341 38.66 50.7209 38.9998 50.6673 36.9818L50.958 34.9291C51.0262 34.6687 51.0427 34.5165 51.1008 34.2678C51.1809 33.9237 51.0752 34.2382 51.2333 34.0247C51.4367 33.7507 51.2702 34.0336 51.3523 33.708C51.4105 33.4761 51.346 33.6457 51.4839 33.4644C51.492 33.4539 51.5058 33.4413 51.5133 33.4308C51.67 33.2108 51.7063 33.0293 51.9687 32.6952C52.5566 31.7634 59.3377 24.7135 61.2436 22.4818C61.4732 22.2128 61.8707 21.8938 61.7296 21.443C61.5988 21.025 60.5624 20.0372 60.2324 19.6465L59.4685 18.7654C59.3155 18.5289 59.2349 18.5201 59.0808 18.3306L58.8924 18.0756C58.5845 17.6974 58.2271 17.3784 57.9468 16.9967C57.7397 16.7147 57.2786 16.4122 57.1884 16.1102C56.5723 16.1262 56.5931 16.3066 56.2791 16.7264C53.1439 21.0606 47.3985 25.8529 45.5214 28.8541L44.9689 29.8658C44.9159 29.9797 44.9075 30.0107 44.8568 30.1279C44.6581 30.5881 44.5622 30.6613 44.364 31.1957L44.0146 32.0307C43.8928 32.2865 43.9573 32.3944 43.881 32.6397C43.7934 32.9217 43.7151 32.8016 43.6537 33.1607C43.5489 33.7737 43.4155 33.776 43.4216 34.4729C43.4245 34.8056 43.131 35.6019 43.1762 37.3023L43.1767 37.3008Z" fill="#FF2509"/>
<path d="M4.13324 60.1311C4.41279 60.1311 4.70231 60.2109 5.00182 60.3707C5.3213 60.5104 5.56091 60.7001 5.72065 60.9397L12.9987 72.1414L11.5012 72.0815L18.959 60.9397C19.3384 60.4006 19.8276 60.1311 20.4266 60.1311C20.9058 60.1311 21.3351 60.3008 21.7145 60.6402C22.0939 60.9797 22.2836 61.419 22.2836 61.9581V79.2997C22.2836 79.8189 22.1138 80.2582 21.7744 80.6176C21.435 80.957 20.9857 81.1267 20.4266 81.1267C19.8675 81.1267 19.4083 80.957 19.0489 80.6176C18.7094 80.2582 18.5397 79.8189 18.5397 79.2997V65.1928L19.7078 65.4623L13.5978 74.7771C13.4181 74.9968 13.1884 75.1865 12.9089 75.3462C12.6493 75.5059 12.3798 75.5758 12.1002 75.5558C11.8406 75.5758 11.5711 75.5059 11.2915 75.3462C11.032 75.1865 10.8123 74.9968 10.6326 74.7771L4.91197 65.7319L5.6907 64.1445V79.2997C5.6907 79.8189 5.53096 80.2582 5.21148 80.6176C4.892 80.957 4.47269 81.1267 3.95354 81.1267C3.45435 81.1267 3.04502 80.957 2.72554 80.6176C2.40607 80.2582 2.24633 79.8189 2.24633 79.2997V61.9581C2.24633 61.4589 2.42603 61.0296 2.78545 60.6702C3.16483 60.3108 3.61409 60.1311 4.13324 60.1311Z" fill="#FF2509"/>
<path d="M36.5218 81.4262C34.8246 81.4262 33.347 81.0768 32.089 80.378C30.8511 79.6591 29.8926 78.6907 29.2137 77.4727C28.5548 76.2547 28.2254 74.877 28.2254 73.3395C28.2254 71.5424 28.5848 70.0149 29.3036 68.757C30.0424 67.4791 31.0008 66.5007 32.1789 65.8218C33.357 65.1429 34.6049 64.8034 35.9228 64.8034C36.9411 64.8034 37.8995 65.0131 38.7981 65.4324C39.7166 65.8517 40.5252 66.4308 41.2241 67.1696C41.923 67.8884 42.4721 68.727 42.8714 69.6854C43.2907 70.6439 43.5004 71.6622 43.5004 72.7404C43.4804 73.2197 43.2907 73.609 42.9313 73.9085C42.5719 74.2081 42.1526 74.3578 41.6734 74.3578H30.2321L29.3335 71.3627H40.3256L39.6667 71.9617V71.153C39.6267 70.574 39.4171 70.0548 39.0377 69.5956C38.6783 69.1363 38.219 68.7769 37.6599 68.5174C37.1208 68.2378 36.5418 68.098 35.9228 68.098C35.3238 68.098 34.7647 68.1779 34.2455 68.3376C33.7264 68.4974 33.2771 68.7669 32.8977 69.1463C32.5183 69.5257 32.2188 70.0349 31.9992 70.6738C31.7795 71.3128 31.6697 72.1215 31.6697 73.0999C31.6697 74.1781 31.8894 75.0966 32.3286 75.8554C32.7879 76.5941 33.3669 77.1632 34.0658 77.5626C34.7846 77.9419 35.5434 78.1316 36.3421 78.1316C37.0809 78.1316 37.6699 78.0717 38.1092 77.9519C38.5485 77.8321 38.8979 77.6924 39.1575 77.5326C39.437 77.3529 39.6866 77.2032 39.9063 77.0833C40.2657 76.9036 40.6051 76.8138 40.9246 76.8138C41.3639 76.8138 41.7233 76.9635 42.0028 77.2631C42.3023 77.5626 42.4521 77.912 42.4521 78.3113C42.4521 78.8505 42.1726 79.3397 41.6135 79.7789C41.0943 80.2182 40.3655 80.6076 39.427 80.947C38.4886 81.2665 37.5202 81.4262 36.5218 81.4262Z" fill="#FF2509"/>
<path d="M60.7647 64.8034C61.2839 64.8034 61.7132 64.9731 62.0526 65.3126C62.3921 65.652 62.5618 66.0913 62.5618 66.6304V79.2997C62.5618 79.8189 62.3921 80.2582 62.0526 80.6176C61.7132 80.957 61.2839 81.1267 60.7647 81.1267C60.2456 81.1267 59.8163 80.957 59.4768 80.6176C59.1374 80.2582 58.9676 79.8189 58.9676 79.2997V77.8321L59.6266 78.1017C59.6266 78.3613 59.4868 78.6807 59.2073 79.0601C58.9277 79.4195 58.5483 79.7789 58.0691 80.1384C57.5899 80.4978 57.0208 80.8073 56.3619 81.0668C55.723 81.3064 55.0241 81.4262 54.2653 81.4262C52.8876 81.4262 51.6396 81.0768 50.5215 80.378C49.4033 79.6591 48.5147 78.6807 47.8558 77.4428C47.2169 76.1848 46.8974 74.7472 46.8974 73.1298C46.8974 71.4925 47.2169 70.0548 47.8558 68.8169C48.5147 67.5589 49.3933 66.5805 50.4915 65.8817C51.5897 65.1628 52.8077 64.8034 54.1455 64.8034C55.0041 64.8034 55.7928 64.9332 56.5117 65.1928C57.2305 65.4524 57.8495 65.7818 58.3686 66.1812C58.9077 66.5805 59.3171 66.9899 59.5966 67.4092C59.8961 67.8085 60.0459 68.148 60.0459 68.4275L58.9676 68.8169V66.6304C58.9676 66.1113 59.1374 65.682 59.4768 65.3425C59.8163 64.9831 60.2456 64.8034 60.7647 64.8034ZM54.7146 78.1316C55.5932 78.1316 56.3619 77.912 57.0208 77.4727C57.6798 77.0334 58.1889 76.4344 58.5483 75.6757C58.9277 74.9169 59.1174 74.0683 59.1174 73.1298C59.1174 72.1714 58.9277 71.3128 58.5483 70.554C58.1889 69.7953 57.6798 69.1962 57.0208 68.757C56.3619 68.3177 55.5932 68.098 54.7146 68.098C53.856 68.098 53.0972 68.3177 52.4383 68.757C51.7794 69.1962 51.2602 69.7953 50.8809 70.554C50.5215 71.3128 50.3418 72.1714 50.3418 73.1298C50.3418 74.0683 50.5215 74.9169 50.8809 75.6757C51.2602 76.4344 51.7794 77.0334 52.4383 77.4727C53.0972 77.912 53.856 78.1316 54.7146 78.1316Z" fill="#FF2509"/>
<path d="M71.0653 79.2997C71.0653 79.8189 70.8856 80.2582 70.5262 80.6176C70.1867 80.957 69.7574 81.1267 69.2383 81.1267C68.7391 81.1267 68.3198 80.957 67.9803 80.6176C67.6409 80.2582 67.4712 79.8189 67.4712 79.2997V60.79C67.4712 60.2708 67.6409 59.8415 67.9803 59.5021C68.3397 59.1427 68.779 58.963 69.2982 58.963C69.8173 58.963 70.2366 59.1427 70.5561 59.5021C70.8956 59.8415 71.0653 60.2708 71.0653 60.79V79.2997Z" fill="#FF2509"/>
<path d="M83.2277 81.4262C81.7102 81.4262 80.2925 81.1467 78.9747 80.5876C77.6568 80.0285 76.4987 79.2598 75.5004 78.2814C74.502 77.283 73.7133 76.1349 73.1342 74.837C72.5751 73.5391 72.2956 72.1414 72.2956 70.6439C72.2956 69.1463 72.5751 67.7486 73.1342 66.4507C73.7133 65.1529 74.502 64.0147 75.5004 63.0363C76.4987 62.0379 77.6568 61.2592 78.9747 60.7001C80.2925 60.141 81.7102 59.8615 83.2277 59.8615C84.1662 59.8615 85.0747 59.9613 85.9533 60.161C86.8318 60.3607 87.6405 60.6602 88.3793 61.0595C88.6788 61.2193 88.8985 61.4389 89.0382 61.7185C89.198 61.978 89.2778 62.2476 89.2778 62.5271C89.2778 63.0064 89.1181 63.4357 88.7986 63.815C88.4791 64.1944 88.0698 64.3841 87.5706 64.3841C87.4109 64.3841 87.2412 64.3641 87.0615 64.3242C86.9017 64.2843 86.742 64.2244 86.5823 64.1445C86.0831 63.9249 85.5539 63.7551 84.9948 63.6353C84.4358 63.5155 83.8467 63.4556 83.2277 63.4556C81.9299 63.4556 80.7418 63.7851 79.6636 64.444C78.6053 65.083 77.7567 65.9515 77.1177 67.0498C76.4987 68.128 76.1892 69.326 76.1892 70.6439C76.1892 71.9418 76.4987 73.1398 77.1177 74.238C77.7567 75.3362 78.6053 76.2148 79.6636 76.8737C80.7418 77.5126 81.9299 77.8321 83.2277 77.8321C83.8268 77.8321 84.4857 77.7722 85.2045 77.6524C85.9233 77.5326 86.5124 77.3729 86.9716 77.1732L86.7021 78.0717V72.9501L87.2112 73.3994H83.8867C83.3675 73.3994 82.9282 73.2296 82.5688 72.8902C82.2294 72.5508 82.0596 72.1215 82.0596 71.6023C82.0596 71.0832 82.2294 70.6539 82.5688 70.3144C82.9282 69.975 83.3675 69.8052 83.8867 69.8052H88.7986C89.3178 69.8052 89.7471 69.985 90.0865 70.3444C90.426 70.6838 90.5957 71.1131 90.5957 71.6323V77.9819C90.5957 78.3812 90.4959 78.7107 90.2962 78.9703C90.1165 79.2298 89.9068 79.4395 89.6672 79.5992C88.7487 80.1583 87.7404 80.6076 86.6422 80.947C85.5639 81.2665 84.4258 81.4262 83.2277 81.4262Z" fill="#FF2509"/>
<path d="M100.802 81.1267C100.283 81.1267 99.8534 80.957 99.514 80.6176C99.1745 80.2582 99.0048 79.8189 99.0048 79.2997V66.9299C99.0048 66.4108 99.1745 65.9815 99.514 65.6421C99.8534 65.2826 100.283 65.1029 100.802 65.1029C101.321 65.1029 101.75 65.2826 102.09 65.6421C102.429 65.9815 102.599 66.4108 102.599 66.9299V69.7453L102.389 67.7386C102.609 67.2594 102.888 66.8401 103.228 66.4807C103.587 66.1013 103.987 65.7918 104.426 65.5522C104.865 65.2926 105.334 65.1029 105.834 64.9831C106.333 64.8633 106.832 64.8034 107.331 64.8034C107.93 64.8034 108.429 64.9731 108.829 65.3126C109.248 65.652 109.458 66.0514 109.458 66.5106C109.458 67.1696 109.288 67.6488 108.949 67.9483C108.609 68.2278 108.24 68.3676 107.84 68.3676C107.461 68.3676 107.112 68.2977 106.792 68.1579C106.493 68.0182 106.143 67.9483 105.744 67.9483C105.384 67.9483 105.015 68.0381 104.636 68.2178C104.276 68.3776 103.937 68.6372 103.617 68.9966C103.318 69.356 103.068 69.8052 102.868 70.3444C102.689 70.8635 102.599 71.4825 102.599 72.2013V79.2997C102.599 79.8189 102.429 80.2582 102.09 80.6176C101.75 80.957 101.321 81.1267 100.802 81.1267Z" fill="#FF2509"/>
<path d="M126.289 73.1298C126.289 74.7671 125.919 76.2148 125.181 77.4727C124.462 78.7107 123.483 79.6791 122.245 80.378C121.027 81.0768 119.66 81.4262 118.142 81.4262C116.625 81.4262 115.247 81.0768 114.009 80.378C112.791 79.6791 111.812 78.7107 111.074 77.4727C110.355 76.2148 109.995 74.7671 109.995 73.1298C109.995 71.4925 110.355 70.0548 111.074 68.8169C111.812 67.5589 112.791 66.5805 114.009 65.8817C115.247 65.1628 116.625 64.8034 118.142 64.8034C119.66 64.8034 121.027 65.1628 122.245 65.8817C123.483 66.5805 124.462 67.5589 125.181 68.8169C125.919 70.0548 126.289 71.4925 126.289 73.1298ZM122.695 73.1298C122.695 72.1115 122.485 71.2329 122.066 70.4941C121.666 69.7354 121.117 69.1463 120.418 68.727C119.74 68.3077 118.981 68.098 118.142 68.098C117.303 68.098 116.535 68.3077 115.836 68.727C115.157 69.1463 114.608 69.7354 114.189 70.4941C113.789 71.2329 113.59 72.1115 113.59 73.1298C113.59 74.1282 113.789 75.0067 114.189 75.7655C114.608 76.5043 115.157 77.0833 115.836 77.5027C116.535 77.922 117.303 78.1316 118.142 78.1316C118.981 78.1316 119.74 77.922 120.418 77.5027C121.117 77.0833 121.666 76.5043 122.066 75.7655C122.485 75.0067 122.695 74.1282 122.695 73.1298Z" fill="#FF2509"/>
</g>
<defs>
<clipPath id="clip0_91_3732">
<rect width="131" height="95" fill="white"/>
</clipPath>
</defs>
</svg>
