<svg width="61" height="61" viewBox="0 0 61 61" fill="none" xmlns="http://www.w3.org/2000/svg">
<circle cx="30.0341" cy="30.0341" r="30.0341" fill="#FF2509"/>
<circle cx="35.0341" cy="17.9437" r="3.33333" stroke="black" stroke-width="2"/>
<circle cx="20.0341" cy="41.2773" r="5" stroke="black" stroke-width="2"/>
<circle cx="40.0341" cy="41.2773" r="5" stroke="black" stroke-width="2"/>
<path d="M40.8675 27.9442H37.4915C35.4565 27.9442 34.4389 27.9442 33.5232 27.5665C32.6075 27.1889 31.8857 26.4716 30.4423 25.0371L29.4801 24.0807C28.1721 22.7809 27.5182 22.1309 26.7437 22.2015C25.9692 22.2721 25.4434 23.0295 24.392 24.5444L22.3476 27.4898C21.277 29.0323 20.7417 29.8035 20.9566 30.5614C21.1715 31.3192 22.032 31.6947 23.7529 32.4456L26.2124 33.5188C28.4856 34.5107 29.6223 35.0067 30.1691 36.0065C30.716 37.0063 30.5205 38.2309 30.1295 40.6801L30.0341 41.2775" stroke="black" stroke-width="2" stroke-linecap="round"/>
</svg>
