<svg width="35" height="42" viewBox="0 0 35 42" fill="none" xmlns="http://www.w3.org/2000/svg">
<path d="M28.96 39.6C26.7141 41.7771 24.2621 41.4333 21.9016 40.4021C19.4037 39.3479 17.1121 39.3021 14.4766 40.4021C11.1766 41.8229 9.43497 41.4104 7.46414 39.6C-3.7192 28.0729 -2.0692 10.5188 10.6266 9.87708C13.7204 10.0375 15.8746 11.5729 17.685 11.7104C20.3891 11.1604 22.9787 9.57917 25.8662 9.78542C29.3266 10.0604 31.9391 11.4354 33.6579 13.9104C26.5079 18.1958 28.2037 27.6146 34.7579 30.25C33.4516 33.6875 31.7558 37.1021 28.9371 39.6229L28.96 39.6ZM17.4558 9.73958C17.1121 4.62917 21.26 0.4125 26.0266 0C26.6912 5.9125 20.6641 10.3125 17.4558 9.73958Z" fill="#1E1E1E"/>
</svg>
