<svg width="34" height="37" viewBox="0 0 34 37" fill="none" xmlns="http://www.w3.org/2000/svg">
<path d="M0.555193 1.78985L17.3069 18.2176L0.679776 34.7968C0.407751 34.4425 0.196588 34.0454 0.0549424 33.6218C-0.0183141 33.1423 -0.0183141 32.6543 0.0549424 32.1748V3.96143C0.00510905 3.20435 0.179526 2.44727 0.553276 1.78985M24.5231 11.0531L19.0549 16.4696L2.50253 0.191349C3.03919 0.0054325 3.61419 -0.0463172 4.17578 0.0418495C5.05744 0.28335 5.89886 0.655183 6.67128 1.1401L21.6519 9.42968C22.6256 9.95293 23.5744 10.503 24.5231 11.0531ZM19.0568 19.9905L24.4982 25.3342L20.5537 27.5307L8.51894 34.2199C7.52228 34.7699 6.52178 35.2951 5.54811 35.895C5.13148 36.1544 4.6643 36.3219 4.17778 36.3864C3.69125 36.4508 3.19657 36.4107 2.72678 36.2688L19.0568 19.9905ZM33.1634 18.2176C33.1774 18.8878 33.0081 19.5491 32.6737 20.1301C32.3392 20.7111 31.8525 21.1897 31.2659 21.5143L26.7694 24.0098L20.8527 18.2176L26.7944 12.3258C28.3181 13.1748 29.8169 14.0239 31.3139 14.8232C31.9109 15.1569 32.4012 15.6527 32.7282 16.2534C33.0551 16.8541 33.2073 17.5351 33.1634 18.2176Z" fill="#1E1E1E"/>
</svg>
