<svg width="47" height="44" viewBox="0 0 47 44" fill="none" xmlns="http://www.w3.org/2000/svg">
<path d="M29.5419 39.9208C32.6556 30.3774 36.0962 26.9342 45.1102 24.3525C36.0962 21.7707 32.6556 18.3275 29.5419 8.78416C26.4283 18.3275 22.9877 21.7707 13.9736 24.3525C22.9877 26.9342 26.4283 30.3774 29.5419 39.9208ZM8.78416 16.5683C10.341 11.794 12.0613 10.0737 16.5683 8.78416C12.0613 7.49458 10.341 5.77428 8.78416 1C7.22733 5.77428 5.50703 7.49458 1 8.78416C5.50703 10.0737 7.22733 11.794 8.78416 16.5683ZM12.6762 42.5155C13.4547 40.1284 14.3135 39.2695 16.5683 38.6234C14.3135 37.9773 13.4547 37.1185 12.6762 34.7314C11.8978 37.1185 11.039 37.9773 8.78416 38.6234C11.039 39.2695 11.8978 40.1284 12.6762 42.5155Z" stroke="black" stroke-width="2" stroke-linejoin="round"/>
</svg>
